<svg width="213" height="45" viewBox="0 0 213 45" fill="none" xmlns="http://www.w3.org/2000/svg">
<path d="M9.92188 16.6758C8.02083 17.3919 6.54948 18.5052 5.50781 20.0156C4.47917 21.513 3.96484 23.362 3.96484 25.5625C3.96484 26.3958 4.05599 27.0599 4.23828 27.5547C4.29036 27.724 4.35547 27.8737 4.43359 28.0039C4.48568 28.0951 4.51172 28.1862 4.51172 28.2773C3.06641 28.2773 2.01172 27.9909 1.34766 27.418C0.605469 26.793 0.234375 25.7839 0.234375 24.3906C0.234375 23.5182 0.423177 22.6589 0.800781 21.8125C1.17839 20.9531 1.71224 20.1263 2.40234 19.332C3.05339 18.5768 3.82812 17.8737 4.72656 17.2227C5.63802 16.5586 6.62109 15.9857 7.67578 15.5039C9.88932 14.5013 12.0898 14 14.2773 14C14.8763 14 15.4102 14.026 15.8789 14.0781L16.2305 38.6875L24.6484 14.1953H27.4414L16.3281 44H10.5664L9.92188 16.6758ZM31.2891 21.832C30.8594 21.832 30.4492 21.7539 30.0586 21.5977C29.668 21.4284 29.3294 21.2005 29.043 20.9141C28.7565 20.6406 28.5286 20.3086 28.3594 19.918C28.2031 19.5273 28.125 19.1172 28.125 18.6875C28.125 18.2578 28.2031 17.8477 28.3594 17.457C28.5286 17.0664 28.7565 16.7214 29.043 16.4219C29.3294 16.1224 29.668 15.8945 30.0586 15.7383C30.4492 15.569 30.8594 15.4844 31.2891 15.4844C31.7188 15.4844 32.1289 15.569 32.5195 15.7383C32.9102 15.8945 33.2552 16.1224 33.5547 16.4219C33.8542 16.7214 34.082 17.0664 34.2383 17.457C34.4076 17.8477 34.4922 18.2578 34.4922 18.6875C34.4922 19.1172 34.4076 19.5273 34.2383 19.918C34.082 20.3086 33.8542 20.6406 33.5547 20.9141C33.2552 21.2005 32.9102 21.4284 32.5195 21.5977C32.1289 21.7539 31.7188 21.832 31.2891 21.832ZM28.5742 44.2344C27.2982 44.2344 26.2891 43.8568 25.5469 43.1016C24.7135 42.2682 24.2969 41.0508 24.2969 39.4492C24.2969 38.694 24.401 37.8216 24.6094 36.832L27.3242 24H33.0859L30.2148 37.5938C30.1107 37.9323 30.0586 38.362 30.0586 38.8828C30.0586 39.4297 30.1823 39.8138 30.4297 40.0352C30.6901 40.2565 31.1068 40.3672 31.6797 40.3672C32.0703 40.3672 32.4479 40.2826 32.8125 40.1133C33.1901 39.931 33.5352 39.6836 33.8477 39.3711C34.4857 38.7331 34.9674 37.8867 35.293 36.832H36.9727C36.2565 38.8503 35.3581 40.4583 34.2773 41.6562C33.3659 42.6328 32.3372 43.3359 31.1914 43.7656C30.3581 44.0781 29.4857 44.2344 28.5742 44.2344ZM39.8633 44.2344C38.8997 44.2344 38.0469 44.0911 37.3047 43.8047C36.5625 43.5052 35.9375 43.0951 35.4297 42.5742C34.9609 42.0924 34.6094 41.5586 34.375 40.9727C34.1406 40.3737 34.0234 39.7552 34.0234 39.1172C34.0234 38.2448 34.2448 37.457 34.6875 36.7539C35.0781 36.1289 35.5664 35.6797 36.1523 35.4062C37.194 33.5573 38.099 31.6823 38.8672 29.7812C39.6354 27.8802 40.3711 25.8034 41.0742 23.5508L46.9922 22.7695C47.1484 26.1549 47.2917 28.7526 47.4219 30.5625C47.5521 32.4245 47.6628 33.7917 47.7539 34.6641C47.832 35.6797 47.8711 36.5651 47.8711 37.3203C47.8711 37.9974 47.819 38.5052 47.7148 38.8438C48.9128 38.1406 49.8698 37.4701 50.5859 36.832H52.2656C51.3151 37.9388 50.332 38.8893 49.3164 39.6836C48.3138 40.4779 47.2591 41.194 46.1523 41.832C45.3581 42.6654 44.362 43.2839 43.1641 43.6875C42.1224 44.0521 41.0221 44.2344 39.8633 44.2344ZM38.5938 41.0703C39.5964 41.0703 40.3971 40.7969 40.9961 40.25C41.7122 39.599 42.0703 38.6354 42.0703 37.3594C42.0703 36.8255 42.0378 36.1549 41.9727 35.3477L41.875 34.1562C41.7578 33.1276 41.6406 31.9362 41.5234 30.582L41.3086 27.8867C40.931 29.0977 40.4818 30.3021 39.9609 31.5C39.4401 32.6849 38.8086 34 38.0664 35.4453C38.6784 35.7839 38.9844 36.2461 38.9844 36.832C38.9844 37.3529 38.8281 37.8021 38.5156 38.1797C38.1771 38.5964 37.7474 38.8047 37.2266 38.8047C36.9661 38.8047 36.7448 38.7721 36.5625 38.707C36.3932 38.6289 36.2565 38.4857 36.1523 38.2773C36.1523 39.2409 36.3411 39.9505 36.7188 40.4062C37.0964 40.849 37.7214 41.0703 38.5938 41.0703ZM74.9023 44.2344C73.2487 44.2344 72.0247 43.7656 71.2305 42.8281C70.5404 42.0208 70.1953 40.9857 70.1953 39.7227C70.1953 39.1237 70.2669 38.4271 70.4102 37.6328C70.5664 36.8385 70.7943 35.8164 71.0938 34.5664C71.3932 33.2904 71.6146 32.2747 71.7578 31.5195C71.9141 30.7513 71.9922 30.0872 71.9922 29.5273C71.9922 28.1602 71.5104 27.4766 70.5469 27.4766C69.8698 27.4766 69.2448 27.8346 68.6719 28.5508C68.1901 29.1628 67.7734 30.0352 67.4219 31.168L64.707 44H58.9453L61.875 30.1914C61.9531 29.8789 61.9922 29.5469 61.9922 29.1953C61.9922 28.6615 61.9076 28.2513 61.7383 27.9648C61.5169 27.6133 61.1979 27.4375 60.7812 27.4375C60.026 27.4375 59.3685 27.8021 58.8086 28.5312C58.3138 29.1562 57.8906 30.0352 57.5391 31.168L54.8242 44H49.0625L53.3008 24H59.0625L58.6328 26.0703C59.4141 25.1979 60.2669 24.5794 61.1914 24.2148C61.9206 23.9414 62.6953 23.8047 63.5156 23.8047C64.6354 23.8047 65.5273 24.0651 66.1914 24.5859C66.9336 25.1719 67.4089 26.0573 67.6172 27.2422C68.4766 25.9141 69.4661 24.9766 70.5859 24.4297C71.3802 24.0391 72.2461 23.8438 73.1836 23.8438C74.5247 23.8438 75.5859 24.1953 76.3672 24.8984C77.2005 25.6667 77.6172 26.819 77.6172 28.3555C77.6172 29.2279 77.4544 30.4323 77.1289 31.9688C76.9987 32.6068 76.8424 33.2513 76.6602 33.9023C76.3346 35.1523 76.0677 36.3047 75.8594 37.3594C75.7552 37.9062 75.7031 38.349 75.7031 38.6875C75.7031 39.2214 75.8203 39.638 76.0547 39.9375C76.3021 40.224 76.7188 40.3672 77.3047 40.3672C78.099 40.3672 78.7695 40.0417 79.3164 39.3906C79.7331 38.8958 80.1823 38.043 80.6641 36.832H82.3438C81.3542 39.7617 80.1042 41.8125 78.5938 42.9844C77.526 43.8177 76.2956 44.2344 74.9023 44.2344ZM85.4688 44.2344C83.9453 44.2344 82.7148 43.7591 81.7773 42.8086C80.6836 41.6888 80.1367 40.0221 80.1367 37.8086C80.1367 36.8711 80.2344 35.8815 80.4297 34.8398C80.612 33.7982 80.8854 32.7695 81.25 31.7539C82.0833 29.4622 83.2227 27.6133 84.668 26.207C86.3346 24.6055 88.2552 23.8047 90.4297 23.8047C91.5104 23.8047 92.3177 23.9935 92.8516 24.3711C93.3984 24.7357 93.6719 25.224 93.6719 25.8359V26.1289L94.1016 24H99.8633L96.9922 37.5938C96.875 37.9844 96.8164 38.4141 96.8164 38.8828C96.8164 40.0286 97.3633 40.6016 98.457 40.6016C99.1862 40.6016 99.8503 40.2305 100.449 39.4883C100.957 38.8633 101.374 37.9779 101.699 36.832H103.379C102.663 38.8633 101.797 40.4714 100.781 41.6562C99.9219 42.6328 98.9518 43.3359 97.8711 43.7656C97.0768 44.0781 96.237 44.2344 95.3516 44.2344C94.2188 44.2344 93.3138 43.9284 92.6367 43.3164C91.9727 42.6914 91.569 41.7734 91.4258 40.5625C90.6706 41.6302 89.8763 42.4635 89.043 43.0625C87.9753 43.8438 86.7839 44.2344 85.4688 44.2344ZM88.0664 40.3672C88.3659 40.3672 88.6784 40.2891 89.0039 40.1328C89.3424 39.9766 89.668 39.7552 89.9805 39.4688C90.6836 38.7917 91.1523 37.9128 91.3867 36.832L93.3008 27.8086C93.3008 27.6784 93.2682 27.5286 93.2031 27.3594C93.151 27.1771 93.0729 27.0078 92.9688 26.8516C92.6562 26.474 92.2201 26.2852 91.6602 26.2852C91.1263 26.2852 90.6055 26.4609 90.0977 26.8125C89.6029 27.1641 89.1341 27.6523 88.6914 28.2773C87.9102 29.4102 87.2656 30.888 86.7578 32.7109C86.5234 33.5182 86.3477 34.319 86.2305 35.1133C86.1133 35.8945 86.0547 36.6042 86.0547 37.2422C86.0547 38.5703 86.3021 39.4688 86.7969 39.9375C86.9661 40.1198 87.1549 40.237 87.3633 40.2891C87.5716 40.3411 87.806 40.3672 88.0664 40.3672ZM176.27 44.1562C175.84 44.1562 175.43 44.0781 175.039 43.9219C174.648 43.7526 174.31 43.5247 174.023 43.2383C173.737 42.9518 173.509 42.6133 173.34 42.2227C173.184 41.832 173.105 41.4219 173.105 40.9922C173.105 40.5625 173.184 40.1523 173.34 39.7617C173.509 39.3711 173.737 39.0326 174.023 38.7461C174.31 38.4596 174.648 38.2318 175.039 38.0625C175.43 37.8932 175.84 37.8086 176.27 37.8086C176.699 37.8086 177.109 37.8932 177.5 38.0625C177.891 38.2318 178.236 38.4596 178.535 38.7461C178.835 39.0326 179.062 39.3711 179.219 39.7617C179.388 40.1523 179.473 40.5625 179.473 40.9922C179.473 41.4219 179.388 41.832 179.219 42.2227C179.062 42.6133 178.835 42.9518 178.535 43.2383C178.236 43.5247 177.891 43.7526 177.5 43.9219C177.109 44.0781 176.699 44.1562 176.27 44.1562Z" fill="white" style="fill:white;fill-opacity:1;"/>
<path d="M113.672 17.5156H113.203C110.833 17.5156 109.049 18.056 107.852 19.1367C106.406 20.4388 105.684 22.5938 105.684 25.6016C105.684 26.4349 105.775 27.099 105.957 27.5938C106.009 27.763 106.074 27.9128 106.152 28.043C106.204 28.1341 106.23 28.2253 106.23 28.3164C104.785 28.3164 103.73 28.0299 103.066 27.457C102.324 26.832 101.953 25.8294 101.953 24.4492C101.953 23.069 102.207 21.7604 102.715 20.5234C103.236 19.2734 104.023 18.1797 105.078 17.2422C106.211 16.2266 107.65 15.4388 109.395 14.8789C111.152 14.319 113.223 14.0391 115.605 14.0391C116.973 14.0391 118.281 14.1172 119.531 14.2734C119.922 14.3125 120.43 14.3841 121.055 14.4883C122.096 14.6836 123.099 14.8138 124.062 14.8789C124.531 14.931 125.124 14.957 125.84 14.957C126.725 14.957 127.572 14.8789 128.379 14.7227C129.186 14.5664 129.889 14.3646 130.488 14.1172C130.423 15.862 129.974 17.1445 129.141 17.9648C128.32 18.7852 127.103 19.1953 125.488 19.1953C124.616 19.1953 123.737 19.1237 122.852 18.9805C121.966 18.8372 120.775 18.6159 119.277 18.3164L113.75 44H108.008L113.672 17.5156ZM126.699 44.2344C124.733 44.2344 123.216 43.7396 122.148 42.75C121.016 41.6953 120.449 40.0742 120.449 37.8867C120.449 37.0664 120.534 36.1549 120.703 35.1523C120.859 34.1497 121.1 33.1471 121.426 32.1445C121.79 31.0247 122.253 29.9635 122.812 28.9609C123.385 27.9583 124.049 27.0729 124.805 26.3047C126.549 24.5339 128.698 23.6484 131.25 23.6484C132.878 23.6484 134.062 24.0391 134.805 24.8203C135.378 25.4323 135.664 26.3177 135.664 27.4766C135.664 28.6094 135.417 29.6771 134.922 30.6797C134.427 31.6693 133.743 32.5482 132.871 33.3164C131.999 34.0716 131.009 34.6771 129.902 35.1328C128.796 35.5755 127.65 35.8359 126.465 35.9141C126.4 36.5911 126.367 37.125 126.367 37.5156C126.367 38.8177 126.615 39.7161 127.109 40.2109C127.539 40.6536 128.255 40.875 129.258 40.875C130.703 40.875 132.025 40.4844 133.223 39.7031C133.73 39.3776 134.219 38.9935 134.688 38.5508C135.156 38.0951 135.703 37.5221 136.328 36.832H137.695C136.432 38.9674 134.98 40.6667 133.34 41.9297C131.322 43.4661 129.108 44.2344 126.699 44.2344ZM126.777 34C127.52 33.9479 128.242 33.7331 128.945 33.3555C129.648 32.9779 130.273 32.4831 130.82 31.8711C131.367 31.2461 131.797 30.5495 132.109 29.7812C132.422 29 132.578 28.2057 132.578 27.3984C132.578 26.8646 132.5 26.4609 132.344 26.1875C132.201 25.901 131.947 25.7578 131.582 25.7578C131.1 25.7578 130.612 25.9922 130.117 26.4609C129.635 26.9297 129.167 27.5742 128.711 28.3945C128.294 29.1628 127.917 30.0352 127.578 31.0117C127.24 31.9883 126.973 32.9844 126.777 34ZM142.051 44.2344C140.085 44.2344 138.568 43.7396 137.5 42.75C136.367 41.6953 135.801 40.0742 135.801 37.8867C135.801 37.0664 135.885 36.1549 136.055 35.1523C136.211 34.1367 136.458 33.1276 136.797 32.125C137.591 29.6901 138.717 27.75 140.176 26.3047C141.973 24.5339 144.102 23.6484 146.562 23.6484C148.164 23.6484 149.349 24.0326 150.117 24.8008C150.716 25.4128 151.016 26.2526 151.016 27.3203C151.016 28.2578 150.807 28.987 150.391 29.5078C150 29.9896 149.499 30.2305 148.887 30.2305C148.444 30.2305 147.975 30.0742 147.48 29.7617C147.806 28.9154 147.969 28.1276 147.969 27.3984C147.969 26.8906 147.871 26.4935 147.676 26.207C147.493 25.9076 147.22 25.7578 146.855 25.7578C146.074 25.7578 145.26 26.4479 144.414 27.8281C143.646 29.0521 143.008 30.6081 142.5 32.4961C141.979 34.3451 141.719 36.0182 141.719 37.5156C141.719 38.8177 141.966 39.7161 142.461 40.2109C142.891 40.6536 143.607 40.875 144.609 40.875C146.055 40.875 147.376 40.4844 148.574 39.7031C149.082 39.3776 149.57 38.9935 150.039 38.5508C150.508 38.0951 151.055 37.5221 151.68 36.832H153.047C151.784 38.9674 150.332 40.6667 148.691 41.9297C146.673 43.4661 144.46 44.2344 142.051 44.2344ZM166.113 44.2344C164.46 44.2344 163.236 43.7656 162.441 42.8281C161.751 42.0208 161.406 40.9857 161.406 39.7227C161.406 39.1237 161.478 38.4271 161.621 37.6328C161.777 36.8385 162.005 35.8164 162.305 34.5664C162.604 33.2904 162.826 32.2747 162.969 31.5195C163.125 30.7513 163.203 30.0872 163.203 29.5273C163.203 28.1602 162.721 27.4766 161.758 27.4766C161.081 27.4766 160.456 27.8346 159.883 28.5508C159.401 29.1628 158.984 30.0352 158.633 31.168L155.918 44H150.156L155.957 16.793L161.875 15.9922L159.727 26.0703C160.508 25.1979 161.348 24.5859 162.246 24.2344C162.91 23.974 163.626 23.8438 164.395 23.8438C165.749 23.8438 166.816 24.1953 167.598 24.8984C168.431 25.6667 168.848 26.819 168.848 28.3555C168.848 29.2799 168.678 30.4844 168.34 31.9688C168.249 32.3984 168.099 33.043 167.891 33.9023C167.513 35.3477 167.24 36.5 167.07 37.3594C166.966 37.9062 166.914 38.349 166.914 38.6875C166.914 39.2214 167.031 39.638 167.266 39.9375C167.513 40.224 167.93 40.3672 168.516 40.3672C169.31 40.3672 169.98 40.0417 170.527 39.3906C170.944 38.8958 171.393 38.043 171.875 36.832H173.555C172.565 39.7617 171.315 41.8125 169.805 42.9844C168.737 43.8177 167.507 44.2344 166.113 44.2344Z" fill="#BBF146" style="fill:#BBF146;fill:color(display-p3 0.7333 0.9451 0.2745);fill-opacity:1;"/>
<g clip-path="url(#clip0_1207_505)">
<path fill-rule="evenodd" clip-rule="evenodd" d="M198.029 20.3712C196.464 17.5397 192.396 12.6803 188.053 14.9498L191.402 18.3215L193.006 17.338L192.169 19.0239L193.495 20.499L195.239 19.5858L194.402 21.2717C191.867 20.499 186.226 20.0635 183.938 24.5029L188.681 24.7839L189.17 22.6766L189.867 24.7839H191.681L192.379 22.8873L193.006 24.7839C190.356 26.5868 185.654 31.0356 188.053 34.4073L191.402 31.0356L190.076 29.2092L191.681 30.3332L193.495 28.7175L192.658 27.0317L194.402 27.9449L197.611 24.7839L196.634 38.9731C196.541 40.5888 195.616 43.8621 192.658 44.0307H197.96V44.0308H203.401C200.443 43.8622 199.518 40.5889 199.425 38.9733L198.448 24.784L201.657 27.945L203.401 27.0318L202.564 28.7177L204.378 30.3333L205.982 29.2094L204.657 31.0357L208.005 34.4074C210.405 31.0357 205.703 26.5869 203.052 24.784L203.68 22.8874L204.378 24.784H206.191L206.889 22.6767L207.377 24.784L212.121 24.503C209.833 20.0636 204.192 20.4991 201.657 21.2718L200.82 19.586L202.564 20.4991L203.889 19.024L203.052 17.3382L204.657 18.3216L208.005 14.9499C203.662 12.6804 199.595 17.5397 198.029 20.3712Z" fill="#BBF146" style="fill:#BBF146;fill:color(display-p3 0.7333 0.9451 0.2745);fill-opacity:1;"/>
</g>
<defs>
<clipPath id="clip0_1207_505">
<rect width="30" height="30" fill="white" style="fill:white;fill-opacity:1;" transform="translate(183 14)"/>
</clipPath>
</defs>
</svg>
