<svg width="436" height="636" viewBox="0 0 436 636" fill="none" xmlns="http://www.w3.org/2000/svg">
<g filter="url(#filter0_d_1290_923)">
<rect x="12" y="6" width="400" height="600" rx="20" fill="#F7F6FB" style="fill:#F7F6FB;fill:color(display-p3 0.9686 0.9647 0.9843);fill-opacity:1;"/>
<path d="M39.78 259.108C39.116 259.108 38.516 259.024 37.98 258.856C37.444 258.68 36.98 258.428 36.588 258.1L36.936 257.308C37.344 257.62 37.772 257.852 38.22 258.004C38.668 258.156 39.188 258.232 39.78 258.232C40.5 258.232 41.032 258.1 41.376 257.836C41.728 257.564 41.904 257.208 41.904 256.768C41.904 256.416 41.776 256.136 41.52 255.928C41.272 255.72 40.852 255.556 40.26 255.436L39.012 255.184C38.26 255.024 37.696 254.764 37.32 254.404C36.952 254.036 36.768 253.548 36.768 252.94C36.768 252.436 36.896 251.996 37.152 251.62C37.416 251.244 37.78 250.952 38.244 250.744C38.708 250.536 39.244 250.432 39.852 250.432C40.42 250.432 40.948 250.524 41.436 250.708C41.924 250.884 42.336 251.14 42.672 251.476L42.324 252.244C41.964 251.916 41.584 251.68 41.184 251.536C40.784 251.384 40.336 251.308 39.84 251.308C39.208 251.308 38.704 251.456 38.328 251.752C37.952 252.04 37.764 252.424 37.764 252.904C37.764 253.288 37.88 253.592 38.112 253.816C38.352 254.04 38.74 254.204 39.276 254.308L40.524 254.572C41.332 254.74 41.928 254.996 42.312 255.34C42.704 255.676 42.9 256.136 42.9 256.72C42.9 257.192 42.772 257.608 42.516 257.968C42.268 258.328 41.908 258.608 41.436 258.808C40.972 259.008 40.42 259.108 39.78 259.108ZM46.9228 259.108C46.0028 259.108 45.2748 258.84 44.7388 258.304C44.2028 257.76 43.9348 257.024 43.9348 256.096C43.9348 255.496 44.0548 254.968 44.2948 254.512C44.5348 254.048 44.8628 253.692 45.2788 253.444C45.7028 253.188 46.1908 253.06 46.7428 253.06C47.5348 253.06 48.1548 253.316 48.6028 253.828C49.0508 254.332 49.2748 255.028 49.2748 255.916V256.288H44.8828C44.9148 256.952 45.1068 257.46 45.4588 257.812C45.8108 258.156 46.2988 258.328 46.9228 258.328C47.2748 258.328 47.6108 258.276 47.9308 258.172C48.2508 258.06 48.5548 257.88 48.8428 257.632L49.1788 258.316C48.9148 258.564 48.5788 258.76 48.1708 258.904C47.7628 259.04 47.3468 259.108 46.9228 259.108ZM46.7668 253.78C46.2148 253.78 45.7788 253.952 45.4588 254.296C45.1388 254.64 44.9508 255.092 44.8948 255.652H48.4348C48.4108 255.06 48.2548 254.6 47.9668 254.272C47.6868 253.944 47.2868 253.78 46.7668 253.78ZM52.4695 259.108C51.8775 259.108 51.4295 258.936 51.1255 258.592C50.8295 258.24 50.6815 257.732 50.6815 257.068V250.54H51.6535V256.996C51.6535 257.852 51.9935 258.28 52.6735 258.28C52.8735 258.28 53.0535 258.256 53.2135 258.208L53.1895 259.024C52.9415 259.08 52.7015 259.108 52.4695 259.108ZM56.8017 259.108C55.8817 259.108 55.1537 258.84 54.6177 258.304C54.0817 257.76 53.8137 257.024 53.8137 256.096C53.8137 255.496 53.9337 254.968 54.1737 254.512C54.4137 254.048 54.7417 253.692 55.1577 253.444C55.5817 253.188 56.0697 253.06 56.6217 253.06C57.4137 253.06 58.0337 253.316 58.4817 253.828C58.9297 254.332 59.1537 255.028 59.1537 255.916V256.288H54.7617C54.7937 256.952 54.9857 257.46 55.3377 257.812C55.6897 258.156 56.1777 258.328 56.8017 258.328C57.1537 258.328 57.4897 258.276 57.8097 258.172C58.1297 258.06 58.4337 257.88 58.7217 257.632L59.0577 258.316C58.7937 258.564 58.4577 258.76 58.0497 258.904C57.6417 259.04 57.2257 259.108 56.8017 259.108ZM56.6457 253.78C56.0937 253.78 55.6577 253.952 55.3377 254.296C55.0177 254.64 54.8297 255.092 54.7737 255.652H58.3137C58.2897 255.06 58.1337 254.6 57.8457 254.272C57.5657 253.944 57.1657 253.78 56.6457 253.78ZM63.0324 259.108C62.4484 259.108 61.9444 258.984 61.5204 258.736C61.0964 258.48 60.7684 258.124 60.5364 257.668C60.3124 257.204 60.2004 256.664 60.2004 256.048C60.2004 255.12 60.4524 254.392 60.9564 253.864C61.4604 253.328 62.1524 253.06 63.0324 253.06C63.3924 253.06 63.7484 253.124 64.1004 253.252C64.4524 253.38 64.7444 253.56 64.9764 253.792L64.6404 254.5C64.4084 254.276 64.1524 254.112 63.8724 254.008C63.6004 253.904 63.3404 253.852 63.0924 253.852C62.4844 253.852 62.0164 254.044 61.6884 254.428C61.3604 254.804 61.1964 255.348 61.1964 256.06C61.1964 256.756 61.3604 257.308 61.6884 257.716C62.0164 258.116 62.4844 258.316 63.0924 258.316C63.3404 258.316 63.6004 258.264 63.8724 258.16C64.1524 258.056 64.4084 257.888 64.6404 257.656L64.9764 258.364C64.7444 258.596 64.4484 258.78 64.0884 258.916C63.7364 259.044 63.3844 259.108 63.0324 259.108ZM68.4551 259.108C67.7671 259.108 67.2511 258.928 66.9071 258.568C66.5631 258.2 66.3911 257.672 66.3911 256.984V253.924H65.2511V253.168H66.3911V251.38H67.3631V253.168H69.2111V253.924H67.3631V256.888C67.3631 257.344 67.4591 257.692 67.6511 257.932C67.8431 258.164 68.1551 258.28 68.5871 258.28C68.7151 258.28 68.8431 258.264 68.9711 258.232C69.0991 258.2 69.2151 258.168 69.3191 258.136L69.4871 258.88C69.3831 258.936 69.2311 258.988 69.0311 259.036C68.8311 259.084 68.6391 259.108 68.4551 259.108ZM72.8798 259.108C71.9598 259.108 71.2318 258.84 70.6958 258.304C70.1598 257.76 69.8918 257.024 69.8918 256.096C69.8918 255.496 70.0118 254.968 70.2518 254.512C70.4918 254.048 70.8198 253.692 71.2358 253.444C71.6598 253.188 72.1478 253.06 72.6998 253.06C73.4918 253.06 74.1118 253.316 74.5598 253.828C75.0078 254.332 75.2318 255.028 75.2318 255.916V256.288H70.8398C70.8718 256.952 71.0638 257.46 71.4158 257.812C71.7678 258.156 72.2558 258.328 72.8798 258.328C73.2318 258.328 73.5678 258.276 73.8878 258.172C74.2078 258.06 74.5118 257.88 74.7998 257.632L75.1358 258.316C74.8718 258.564 74.5358 258.76 74.1278 258.904C73.7198 259.04 73.3038 259.108 72.8798 259.108ZM72.7238 253.78C72.1718 253.78 71.7358 253.952 71.4158 254.296C71.0958 254.64 70.9078 255.092 70.8518 255.652H74.3918C74.3678 255.06 74.2118 254.6 73.9238 254.272C73.6438 253.944 73.2438 253.78 72.7238 253.78ZM78.8586 259.108C78.3386 259.108 77.8826 258.984 77.4906 258.736C77.1066 258.488 76.8066 258.14 76.5906 257.692C76.3826 257.236 76.2786 256.7 76.2786 256.084C76.2786 255.46 76.3826 254.924 76.5906 254.476C76.8066 254.02 77.1066 253.672 77.4906 253.432C77.8826 253.184 78.3386 253.06 78.8586 253.06C79.3146 253.06 79.7146 253.16 80.0586 253.36C80.4106 253.56 80.6706 253.836 80.8386 254.188V250.54H81.8106V259H80.8626V257.932C80.6946 258.3 80.4346 258.588 80.0826 258.796C79.7306 259.004 79.3226 259.108 78.8586 259.108ZM79.0626 258.328C79.6066 258.328 80.0426 258.136 80.3706 257.752C80.6986 257.36 80.8626 256.804 80.8626 256.084C80.8626 255.356 80.6986 254.8 80.3706 254.416C80.0426 254.032 79.6066 253.84 79.0626 253.84C78.5106 253.84 78.0706 254.032 77.7426 254.416C77.4226 254.8 77.2626 255.356 77.2626 256.084C77.2626 256.804 77.4226 257.36 77.7426 257.752C78.0706 258.136 78.5106 258.328 79.0626 258.328ZM86.8487 259V250.54H89.7047C91.0727 250.54 92.1287 250.904 92.8727 251.632C93.6167 252.352 93.9887 253.396 93.9887 254.764C93.9887 256.132 93.6167 257.18 92.8727 257.908C92.1287 258.636 91.0727 259 89.7047 259H86.8487ZM87.8327 258.16H89.6327C91.8407 258.16 92.9447 257.028 92.9447 254.764C92.9447 252.508 91.8407 251.38 89.6327 251.38H87.8327V258.16ZM97.4589 259.108C97.0589 259.108 96.6989 259.032 96.3789 258.88C96.0669 258.72 95.8189 258.504 95.6349 258.232C95.4509 257.96 95.3589 257.656 95.3589 257.32C95.3589 256.896 95.4669 256.56 95.6829 256.312C95.9069 256.064 96.2709 255.888 96.7749 255.784C97.2869 255.672 97.9829 255.616 98.8629 255.616H99.2469V255.244C99.2469 254.748 99.1429 254.392 98.9349 254.176C98.7349 253.952 98.4109 253.84 97.9629 253.84C97.6109 253.84 97.2709 253.892 96.9429 253.996C96.6149 254.092 96.2789 254.252 95.9349 254.476L95.5989 253.768C95.9029 253.552 96.2709 253.38 96.7029 253.252C97.1429 253.124 97.5629 253.06 97.9629 253.06C98.7149 253.06 99.2709 253.244 99.6309 253.612C99.9989 253.98 100.183 254.552 100.183 255.328V259H99.2709V257.992C99.1189 258.336 98.8829 258.608 98.5629 258.808C98.2509 259.008 97.8829 259.108 97.4589 259.108ZM97.6149 258.376C98.0949 258.376 98.4869 258.212 98.7909 257.884C99.0949 257.548 99.2469 257.124 99.2469 256.612V256.252H98.8749C98.2269 256.252 97.7149 256.284 97.3389 256.348C96.9709 256.404 96.7109 256.508 96.5589 256.66C96.4149 256.804 96.3429 257.004 96.3429 257.26C96.3429 257.588 96.4549 257.856 96.6789 258.064C96.9109 258.272 97.2229 258.376 97.6149 258.376ZM104.326 259.108C103.638 259.108 103.122 258.928 102.778 258.568C102.434 258.2 102.262 257.672 102.262 256.984V253.924H101.122V253.168H102.262V251.38H103.234V253.168H105.082V253.924H103.234V256.888C103.234 257.344 103.33 257.692 103.522 257.932C103.714 258.164 104.026 258.28 104.458 258.28C104.586 258.28 104.714 258.264 104.842 258.232C104.97 258.2 105.086 258.168 105.19 258.136L105.358 258.88C105.254 258.936 105.102 258.988 104.902 259.036C104.702 259.084 104.51 259.108 104.326 259.108ZM108.751 259.108C107.831 259.108 107.103 258.84 106.567 258.304C106.031 257.76 105.763 257.024 105.763 256.096C105.763 255.496 105.883 254.968 106.123 254.512C106.363 254.048 106.691 253.692 107.107 253.444C107.531 253.188 108.019 253.06 108.571 253.06C109.363 253.06 109.983 253.316 110.431 253.828C110.879 254.332 111.103 255.028 111.103 255.916V256.288H106.711C106.743 256.952 106.935 257.46 107.287 257.812C107.639 258.156 108.127 258.328 108.751 258.328C109.103 258.328 109.439 258.276 109.759 258.172C110.079 258.06 110.383 257.88 110.671 257.632L111.007 258.316C110.743 258.564 110.407 258.76 109.999 258.904C109.591 259.04 109.175 259.108 108.751 259.108ZM108.595 253.78C108.043 253.78 107.607 253.952 107.287 254.296C106.967 254.64 106.779 255.092 106.723 255.652H110.263C110.239 255.06 110.083 254.6 109.795 254.272C109.515 253.944 109.115 253.78 108.595 253.78ZM114.478 259.108C114.022 259.108 113.59 259.044 113.182 258.916C112.774 258.788 112.438 258.608 112.174 258.376L112.486 257.692C112.774 257.924 113.09 258.096 113.434 258.208C113.786 258.312 114.142 258.364 114.502 258.364C114.958 258.364 115.302 258.28 115.534 258.112C115.766 257.944 115.882 257.716 115.882 257.428C115.882 257.204 115.806 257.028 115.654 256.9C115.502 256.764 115.262 256.66 114.934 256.588L113.842 256.348C112.85 256.132 112.354 255.62 112.354 254.812C112.354 254.284 112.562 253.86 112.978 253.54C113.402 253.22 113.954 253.06 114.634 253.06C115.034 253.06 115.414 253.124 115.774 253.252C116.142 253.372 116.446 253.552 116.686 253.792L116.362 254.476C116.13 254.26 115.858 254.096 115.546 253.984C115.242 253.864 114.938 253.804 114.634 253.804C114.186 253.804 113.846 253.892 113.614 254.068C113.382 254.244 113.266 254.476 113.266 254.764C113.266 255.212 113.562 255.5 114.154 255.628L115.246 255.856C115.758 255.968 116.146 256.148 116.41 256.396C116.674 256.636 116.806 256.964 116.806 257.38C116.806 257.916 116.594 258.34 116.17 258.652C115.746 258.956 115.182 259.108 114.478 259.108Z" fill="#16181C" style="fill:#16181C;fill:color(display-p3 0.0863 0.0941 0.1098);fill-opacity:1;"/>
<rect x="36" y="342" width="352" height="60" rx="6" fill="#BBF146" style="fill:#BBF146;fill:color(display-p3 0.7333 0.9451 0.2745);fill-opacity:1;"/>
<mask id="path-4-inside-1_1290_923" fill="white">
<path fill-rule="evenodd" clip-rule="evenodd" d="M170.5 367H168.5V371H164.5V373H168.5V377H170.5V373H174.5V371H170.5V367Z"/>
</mask>
<path fill-rule="evenodd" clip-rule="evenodd" d="M170.5 367H168.5V371H164.5V373H168.5V377H170.5V373H174.5V371H170.5V367Z" fill="#16181C" style="fill:#16181C;fill:color(display-p3 0.0863 0.0941 0.1098);fill-opacity:1;"/>
<path d="M168.5 367V366H167.5V367H168.5ZM170.5 367H171.5V366H170.5V367ZM168.5 371V372H169.5V371H168.5ZM164.5 371V370H163.5V371H164.5ZM164.5 373H163.5V374H164.5V373ZM168.5 373H169.5V372H168.5V373ZM168.5 377H167.5V378H168.5V377ZM170.5 377V378H171.5V377H170.5ZM170.5 373V372H169.5V373H170.5ZM174.5 373V374H175.5V373H174.5ZM174.5 371H175.5V370H174.5V371ZM170.5 371H169.5V372H170.5V371ZM168.5 368H170.5V366H168.5V368ZM169.5 371V367H167.5V371H169.5ZM164.5 372H168.5V370H164.5V372ZM165.5 373V371H163.5V373H165.5ZM168.5 372H164.5V374H168.5V372ZM169.5 377V373H167.5V377H169.5ZM170.5 376H168.5V378H170.5V376ZM169.5 373V377H171.5V373H169.5ZM174.5 372H170.5V374H174.5V372ZM173.5 371V373H175.5V371H173.5ZM170.5 372H174.5V370H170.5V372ZM169.5 367V371H171.5V367H169.5Z" fill="#16181C" style="fill:#16181C;fill:color(display-p3 0.0863 0.0941 0.1098);fill-opacity:1;" mask="url(#path-4-inside-1_1290_923)"/>
<path d="M180.946 377.5L186.598 364.81H188.146L193.816 377.5H191.908L190.576 374.404H184.15L182.836 377.5H180.946ZM187.354 366.88L184.816 372.892H189.946L187.39 366.88H187.354ZM198.54 377.662C197.772 377.662 197.094 377.482 196.506 377.122C195.93 376.75 195.48 376.222 195.156 375.538C194.832 374.854 194.67 374.044 194.67 373.108C194.67 372.172 194.832 371.368 195.156 370.696C195.48 370.012 195.93 369.484 196.506 369.112C197.082 368.74 197.76 368.554 198.54 368.554C199.2 368.554 199.788 368.698 200.304 368.986C200.82 369.274 201.204 369.664 201.456 370.156V364.81H203.274V377.5H201.492V375.97C201.24 376.498 200.85 376.912 200.322 377.212C199.806 377.512 199.212 377.662 198.54 377.662ZM199.008 376.258C199.752 376.258 200.352 375.988 200.808 375.448C201.264 374.908 201.492 374.128 201.492 373.108C201.492 372.088 201.264 371.314 200.808 370.786C200.352 370.246 199.752 369.976 199.008 369.976C198.252 369.976 197.646 370.246 197.19 370.786C196.734 371.314 196.506 372.088 196.506 373.108C196.506 374.128 196.734 374.908 197.19 375.448C197.646 375.988 198.252 376.258 199.008 376.258ZM209.175 377.662C208.407 377.662 207.729 377.482 207.141 377.122C206.565 376.75 206.115 376.222 205.791 375.538C205.467 374.854 205.305 374.044 205.305 373.108C205.305 372.172 205.467 371.368 205.791 370.696C206.115 370.012 206.565 369.484 207.141 369.112C207.717 368.74 208.395 368.554 209.175 368.554C209.835 368.554 210.423 368.698 210.939 368.986C211.455 369.274 211.839 369.664 212.091 370.156V364.81H213.909V377.5H212.127V375.97C211.875 376.498 211.485 376.912 210.957 377.212C210.441 377.512 209.847 377.662 209.175 377.662ZM209.643 376.258C210.387 376.258 210.987 375.988 211.443 375.448C211.899 374.908 212.127 374.128 212.127 373.108C212.127 372.088 211.899 371.314 211.443 370.786C210.987 370.246 210.387 369.976 209.643 369.976C208.887 369.976 208.281 370.246 207.825 370.786C207.369 371.314 207.141 372.088 207.141 373.108C207.141 374.128 207.369 374.908 207.825 375.448C208.281 375.988 208.887 376.258 209.643 376.258ZM221.388 377.5V364.81H225.87C227.958 364.81 229.566 365.356 230.694 366.448C231.834 367.54 232.404 369.106 232.404 371.146C232.404 373.186 231.834 374.758 230.694 375.862C229.566 376.954 227.958 377.5 225.87 377.5H221.388ZM223.26 375.934H225.762C228.894 375.934 230.46 374.338 230.46 371.146C230.46 367.966 228.894 366.376 225.762 366.376H223.26V375.934ZM237.516 377.662C236.904 377.662 236.358 377.542 235.878 377.302C235.398 377.062 235.014 376.738 234.726 376.33C234.45 375.922 234.312 375.46 234.312 374.944C234.312 374.296 234.474 373.786 234.798 373.414C235.134 373.042 235.68 372.772 236.436 372.604C237.204 372.436 238.236 372.352 239.532 372.352H240.144V371.884C240.144 371.2 240 370.708 239.712 370.408C239.424 370.108 238.95 369.958 238.29 369.958C237.786 369.958 237.282 370.036 236.778 370.192C236.274 370.336 235.758 370.57 235.23 370.894L234.672 369.616C235.128 369.292 235.698 369.034 236.382 368.842C237.066 368.65 237.72 368.554 238.344 368.554C239.544 368.554 240.432 368.842 241.008 369.418C241.584 369.982 241.872 370.87 241.872 372.082V377.5H240.162V376.042C239.946 376.546 239.61 376.942 239.154 377.23C238.698 377.518 238.152 377.662 237.516 377.662ZM237.876 376.366C238.524 376.366 239.064 376.138 239.496 375.682C239.928 375.226 240.144 374.65 240.144 373.954V373.468H239.55C238.674 373.468 237.984 373.51 237.48 373.594C236.988 373.678 236.634 373.822 236.418 374.026C236.214 374.218 236.112 374.488 236.112 374.836C236.112 375.292 236.268 375.664 236.58 375.952C236.892 376.228 237.324 376.366 237.876 376.366ZM248.12 377.662C247.016 377.662 246.194 377.38 245.654 376.816C245.114 376.252 244.844 375.436 244.844 374.368V370.12H243.134V368.716H244.844V366.07H246.662V368.716H249.38V370.12H246.662V374.224C246.662 374.86 246.794 375.34 247.058 375.664C247.334 375.988 247.778 376.15 248.39 376.15C248.582 376.15 248.768 376.132 248.948 376.096C249.128 376.048 249.308 375.994 249.488 375.934L249.776 377.302C249.596 377.41 249.344 377.494 249.02 377.554C248.708 377.626 248.408 377.662 248.12 377.662ZM254.984 377.662C253.544 377.662 252.41 377.26 251.582 376.456C250.754 375.64 250.34 374.53 250.34 373.126C250.34 372.226 250.52 371.434 250.88 370.75C251.252 370.054 251.762 369.514 252.41 369.13C253.058 368.746 253.802 368.554 254.642 368.554C255.854 368.554 256.808 368.944 257.504 369.724C258.2 370.492 258.548 371.554 258.548 372.91V373.522H252.104C252.236 375.346 253.202 376.258 255.002 376.258C255.506 376.258 255.998 376.18 256.478 376.024C256.97 375.868 257.432 375.61 257.864 375.25L258.404 376.51C258.008 376.87 257.498 377.152 256.874 377.356C256.25 377.56 255.62 377.662 254.984 377.662ZM254.714 369.832C253.958 369.832 253.358 370.066 252.914 370.534C252.47 371.002 252.2 371.626 252.104 372.406H257.018C256.982 371.59 256.766 370.96 256.37 370.516C255.974 370.06 255.422 369.832 254.714 369.832Z" fill="#16181C" style="fill:#16181C;fill:color(display-p3 0.0863 0.0941 0.1098);fill-opacity:1;"/>
<rect x="36.5" y="272.5" width="351" height="59" rx="5.5" fill="white" stroke="#EDEDED" style="fill:white;fill-opacity:1;stroke:#EDEDED;stroke:color(display-p3 0.9306 0.9306 0.9306);stroke-opacity:1;"/>
<path d="M53.62 308V306.884L57.958 302.204C58.57 301.532 59.008 300.92 59.272 300.368C59.548 299.816 59.686 299.252 59.686 298.676C59.686 297.2 58.828 296.462 57.112 296.462C55.828 296.462 54.694 296.942 53.71 297.902L53.152 296.75C53.62 296.27 54.214 295.886 54.934 295.598C55.666 295.298 56.434 295.148 57.238 295.148C58.51 295.148 59.482 295.448 60.154 296.048C60.838 296.636 61.18 297.476 61.18 298.568C61.18 299.324 60.994 300.068 60.622 300.8C60.25 301.52 59.68 302.288 58.912 303.104L55.51 306.74H61.702V308H53.62ZM68.193 308.162C66.741 308.162 65.637 307.604 64.881 306.488C64.125 305.372 63.747 303.758 63.747 301.646C63.747 299.522 64.125 297.908 64.881 296.804C65.637 295.7 66.741 295.148 68.193 295.148C69.657 295.148 70.761 295.7 71.505 296.804C72.261 297.896 72.639 299.504 72.639 301.628C72.639 303.752 72.255 305.372 71.487 306.488C70.731 307.604 69.633 308.162 68.193 308.162ZM68.193 306.884C69.201 306.884 69.945 306.458 70.425 305.606C70.917 304.754 71.163 303.428 71.163 301.628C71.163 299.828 70.923 298.514 70.443 297.686C69.963 296.846 69.213 296.426 68.193 296.426C67.185 296.426 66.435 296.846 65.943 297.686C65.463 298.526 65.223 299.84 65.223 301.628C65.223 303.428 65.463 304.754 65.943 305.606C66.435 306.458 67.185 306.884 68.193 306.884ZM75.2059 308V306.884L79.5439 302.204C80.1559 301.532 80.5939 300.92 80.8579 300.368C81.1339 299.816 81.2719 299.252 81.2719 298.676C81.2719 297.2 80.4139 296.462 78.6979 296.462C77.4139 296.462 76.2799 296.942 75.2959 297.902L74.7379 296.75C75.2059 296.27 75.7999 295.886 76.5199 295.598C77.2519 295.298 78.0199 295.148 78.8239 295.148C80.0959 295.148 81.0679 295.448 81.7399 296.048C82.4239 296.636 82.7659 297.476 82.7659 298.568C82.7659 299.324 82.5799 300.068 82.2079 300.8C81.8359 301.52 81.2659 302.288 80.4979 303.104L77.0959 306.74H83.2879V308H75.2059ZM91.1649 308V305.282H85.3149V304.166L91.4169 295.31H92.6589V304.022H94.5489V305.282H92.6589V308H91.1649ZM91.1649 304.022V297.74L86.8449 304.022H91.1649ZM96.3059 308V306.164H98.1419V308H96.3059ZM104.668 308.162C103.216 308.162 102.112 307.604 101.356 306.488C100.6 305.372 100.222 303.758 100.222 301.646C100.222 299.522 100.6 297.908 101.356 296.804C102.112 295.7 103.216 295.148 104.668 295.148C106.132 295.148 107.236 295.7 107.98 296.804C108.736 297.896 109.114 299.504 109.114 301.628C109.114 303.752 108.73 305.372 107.962 306.488C107.206 307.604 106.108 308.162 104.668 308.162ZM104.668 306.884C105.676 306.884 106.42 306.458 106.9 305.606C107.392 304.754 107.638 303.428 107.638 301.628C107.638 299.828 107.398 298.514 106.918 297.686C106.438 296.846 105.688 296.426 104.668 296.426C103.66 296.426 102.91 296.846 102.418 297.686C101.938 298.526 101.698 299.84 101.698 301.628C101.698 303.428 101.938 304.754 102.418 305.606C102.91 306.458 103.66 306.884 104.668 306.884ZM112.077 308L117.981 296.588H111.267V295.31H119.655V296.426L113.715 308H112.077ZM121.988 308V306.164H123.824V308H121.988ZM126.569 308V306.884L130.907 302.204C131.519 301.532 131.957 300.92 132.221 300.368C132.497 299.816 132.635 299.252 132.635 298.676C132.635 297.2 131.777 296.462 130.061 296.462C128.777 296.462 127.643 296.942 126.659 297.902L126.101 296.75C126.569 296.27 127.163 295.886 127.883 295.598C128.615 295.298 129.383 295.148 130.187 295.148C131.459 295.148 132.431 295.448 133.103 296.048C133.787 296.636 134.129 297.476 134.129 298.568C134.129 299.324 133.943 300.068 133.571 300.8C133.199 301.52 132.629 302.288 131.861 303.104L128.459 306.74H134.651V308H126.569ZM142.528 308V305.282H136.678V304.166L142.78 295.31H144.022V304.022H145.912V305.282H144.022V308H142.528ZM142.528 304.022V297.74L138.208 304.022H142.528ZM152.454 303.806V302.6H157.494V303.806H152.454ZM165.03 308V306.884L169.368 302.204C169.98 301.532 170.418 300.92 170.682 300.368C170.958 299.816 171.096 299.252 171.096 298.676C171.096 297.2 170.238 296.462 168.522 296.462C167.238 296.462 166.104 296.942 165.12 297.902L164.562 296.75C165.03 296.27 165.624 295.886 166.344 295.598C167.076 295.298 167.844 295.148 168.648 295.148C169.92 295.148 170.892 295.448 171.564 296.048C172.248 296.636 172.59 297.476 172.59 298.568C172.59 299.324 172.404 300.068 172.032 300.8C171.66 301.52 171.09 302.288 170.322 303.104L166.92 306.74H173.112V308H165.03ZM179.603 308.162C178.151 308.162 177.047 307.604 176.291 306.488C175.535 305.372 175.157 303.758 175.157 301.646C175.157 299.522 175.535 297.908 176.291 296.804C177.047 295.7 178.151 295.148 179.603 295.148C181.067 295.148 182.171 295.7 182.915 296.804C183.671 297.896 184.049 299.504 184.049 301.628C184.049 303.752 183.665 305.372 182.897 306.488C182.141 307.604 181.043 308.162 179.603 308.162ZM179.603 306.884C180.611 306.884 181.355 306.458 181.835 305.606C182.327 304.754 182.573 303.428 182.573 301.628C182.573 299.828 182.333 298.514 181.853 297.686C181.373 296.846 180.623 296.426 179.603 296.426C178.595 296.426 177.845 296.846 177.353 297.686C176.873 298.526 176.633 299.84 176.633 301.628C176.633 303.428 176.873 304.754 177.353 305.606C177.845 306.458 178.595 306.884 179.603 306.884ZM186.616 308V306.884L190.954 302.204C191.566 301.532 192.004 300.92 192.268 300.368C192.544 299.816 192.682 299.252 192.682 298.676C192.682 297.2 191.824 296.462 190.108 296.462C188.824 296.462 187.69 296.942 186.706 297.902L186.148 296.75C186.616 296.27 187.21 295.886 187.93 295.598C188.662 295.298 189.43 295.148 190.234 295.148C191.506 295.148 192.478 295.448 193.15 296.048C193.834 296.636 194.176 297.476 194.176 298.568C194.176 299.324 193.99 300.068 193.618 300.8C193.246 301.52 192.676 302.288 191.908 303.104L188.506 306.74H194.698V308H186.616ZM202.575 308V305.282H196.725V304.166L202.827 295.31H204.069V304.022H205.959V305.282H204.069V308H202.575ZM202.575 304.022V297.74L198.255 304.022H202.575ZM207.716 308V306.164H209.552V308H207.716ZM216.078 308.162C214.626 308.162 213.522 307.604 212.766 306.488C212.01 305.372 211.632 303.758 211.632 301.646C211.632 299.522 212.01 297.908 212.766 296.804C213.522 295.7 214.626 295.148 216.078 295.148C217.542 295.148 218.646 295.7 219.39 296.804C220.146 297.896 220.524 299.504 220.524 301.628C220.524 303.752 220.14 305.372 219.372 306.488C218.616 307.604 217.518 308.162 216.078 308.162ZM216.078 306.884C217.086 306.884 217.83 306.458 218.31 305.606C218.802 304.754 219.048 303.428 219.048 301.628C219.048 299.828 218.808 298.514 218.328 297.686C217.848 296.846 217.098 296.426 216.078 296.426C215.07 296.426 214.32 296.846 213.828 297.686C213.348 298.526 213.108 299.84 213.108 301.628C213.108 303.428 213.348 304.754 213.828 305.606C214.32 306.458 215.07 306.884 216.078 306.884ZM223.487 308L229.391 296.588H222.677V295.31H231.065V296.426L225.125 308H223.487ZM233.398 308V306.164H235.234V308H233.398ZM237.979 308V306.884L242.317 302.204C242.929 301.532 243.367 300.92 243.631 300.368C243.907 299.816 244.045 299.252 244.045 298.676C244.045 297.2 243.187 296.462 241.471 296.462C240.187 296.462 239.053 296.942 238.069 297.902L237.511 296.75C237.979 296.27 238.573 295.886 239.293 295.598C240.025 295.298 240.793 295.148 241.597 295.148C242.869 295.148 243.841 295.448 244.513 296.048C245.197 296.636 245.539 297.476 245.539 298.568C245.539 299.324 245.353 300.068 244.981 300.8C244.609 301.52 244.039 302.288 243.271 303.104L239.869 306.74H246.061V308H237.979ZM251.688 308.162C251.04 308.162 250.386 308.024 249.726 307.748C249.066 307.472 248.526 307.1 248.106 306.632L248.664 305.462C249.096 305.93 249.57 306.278 250.086 306.506C250.614 306.734 251.154 306.848 251.706 306.848C252.882 306.848 253.788 306.41 254.424 305.534C255.06 304.658 255.378 303.356 255.378 301.628V300.728C255.138 301.52 254.706 302.144 254.082 302.6C253.47 303.044 252.744 303.266 251.904 303.266C251.16 303.266 250.5 303.098 249.924 302.762C249.348 302.414 248.898 301.94 248.574 301.34C248.25 300.74 248.088 300.05 248.088 299.27C248.088 298.466 248.256 297.758 248.592 297.146C248.94 296.522 249.414 296.036 250.014 295.688C250.626 295.328 251.328 295.148 252.12 295.148C253.62 295.148 254.772 295.694 255.576 296.786C256.392 297.866 256.8 299.384 256.8 301.34C256.8 303.524 256.35 305.21 255.45 306.398C254.55 307.574 253.296 308.162 251.688 308.162ZM252.21 302.024C253.014 302.024 253.668 301.766 254.172 301.25C254.676 300.722 254.928 300.044 254.928 299.216C254.928 298.376 254.676 297.698 254.172 297.182C253.668 296.654 253.014 296.39 252.21 296.39C251.418 296.39 250.77 296.654 250.266 297.182C249.762 297.698 249.51 298.376 249.51 299.216C249.51 300.044 249.762 300.722 250.266 301.25C250.77 301.766 251.418 302.024 252.21 302.024Z" fill="#16181C" style="fill:#16181C;fill:color(display-p3 0.0863 0.0941 0.1098);fill-opacity:1;"/>
<mask id="path-9-inside-2_1290_923" fill="white">
<path fill-rule="evenodd" clip-rule="evenodd" d="M371.914 297.414L370.5 296L365.914 300.586L361.414 296.086L360 297.5L364.5 302L360 306.5L361.414 307.914L365.914 303.414L370.5 308L371.914 306.585L367.329 302L371.914 297.414Z"/>
</mask>
<path fill-rule="evenodd" clip-rule="evenodd" d="M371.914 297.414L370.5 296L365.914 300.586L361.414 296.086L360 297.5L364.5 302L360 306.5L361.414 307.914L365.914 303.414L370.5 308L371.914 306.585L367.329 302L371.914 297.414Z" fill="#16181C" style="fill:#16181C;fill:color(display-p3 0.0863 0.0941 0.1098);fill-opacity:1;"/>
<path d="M370.5 296L371.207 295.293L370.5 294.586L369.793 295.293L370.5 296ZM371.914 297.414L372.621 298.121L373.328 297.414L372.621 296.707L371.914 297.414ZM365.914 300.586L365.207 301.293L365.914 302L366.621 301.293L365.914 300.586ZM361.414 296.086L362.121 295.379L361.414 294.671L360.707 295.379L361.414 296.086ZM360 297.5L359.293 296.793L358.586 297.5L359.293 298.207L360 297.5ZM364.5 302L365.207 302.707L365.914 302L365.207 301.293L364.5 302ZM360 306.5L359.293 305.793L358.586 306.5L359.293 307.207L360 306.5ZM361.414 307.914L360.707 308.621L361.414 309.328L362.121 308.621L361.414 307.914ZM365.914 303.414L366.621 302.707L365.914 302L365.207 302.707L365.914 303.414ZM370.5 308L369.793 308.707L370.5 309.414L371.207 308.707L370.5 308ZM371.914 306.585L372.621 307.293L373.328 306.585L372.621 305.878L371.914 306.585ZM367.329 302L366.621 301.293L365.914 302L366.621 302.707L367.329 302ZM369.793 296.707L371.207 298.121L372.621 296.707L371.207 295.293L369.793 296.707ZM366.621 301.293L371.207 296.707L369.793 295.293L365.207 299.879L366.621 301.293ZM360.707 296.793L365.207 301.293L366.621 299.879L362.121 295.379L360.707 296.793ZM360.707 298.207L362.121 296.793L360.707 295.379L359.293 296.793L360.707 298.207ZM365.207 301.293L360.707 296.793L359.293 298.207L363.793 302.707L365.207 301.293ZM360.707 307.207L365.207 302.707L363.793 301.293L359.293 305.793L360.707 307.207ZM362.121 307.207L360.707 305.793L359.293 307.207L360.707 308.621L362.121 307.207ZM365.207 302.707L360.707 307.207L362.121 308.621L366.621 304.121L365.207 302.707ZM371.207 307.293L366.621 302.707L365.207 304.121L369.793 308.707L371.207 307.293ZM371.207 305.878L369.793 307.293L371.207 308.707L372.621 307.293L371.207 305.878ZM366.621 302.707L371.207 307.293L372.621 305.878L368.036 301.293L366.621 302.707ZM371.207 296.707L366.621 301.293L368.036 302.707L372.621 298.121L371.207 296.707Z" fill="#16181C" style="fill:#16181C;fill:color(display-p3 0.0863 0.0941 0.1098);fill-opacity:1;" mask="url(#path-9-inside-2_1290_923)"/>
<rect x="36.5" y="164.5" width="351" height="59" rx="5.5" fill="white" stroke="#EDEDED" style="fill:white;fill-opacity:1;stroke:#EDEDED;stroke:color(display-p3 0.9306 0.9306 0.9306);stroke-opacity:1;"/>
<path d="M57.526 200L51.982 187.31H53.566L58.228 198.128L62.872 187.31H64.42L58.858 200H57.526ZM67.5126 200.162C66.9126 200.162 66.3726 200.048 65.8926 199.82C65.4246 199.58 65.0526 199.256 64.7766 198.848C64.5006 198.44 64.3626 197.984 64.3626 197.48C64.3626 196.844 64.5246 196.34 64.8486 195.968C65.1846 195.596 65.7306 195.332 66.4866 195.176C67.2546 195.008 68.2986 194.924 69.6186 194.924H70.1946V194.366C70.1946 193.622 70.0386 193.088 69.7266 192.764C69.4266 192.428 68.9406 192.26 68.2686 192.26C67.7406 192.26 67.2306 192.338 66.7386 192.494C66.2466 192.638 65.7426 192.878 65.2266 193.214L64.7226 192.152C65.1786 191.828 65.7306 191.57 66.3786 191.378C67.0386 191.186 67.6686 191.09 68.2686 191.09C69.3966 191.09 70.2306 191.366 70.7706 191.918C71.3226 192.47 71.5986 193.328 71.5986 194.492V200H70.2306V198.488C70.0026 199.004 69.6486 199.412 69.1686 199.712C68.7006 200.012 68.1486 200.162 67.5126 200.162ZM67.7466 199.064C68.4666 199.064 69.0546 198.818 69.5106 198.326C69.9666 197.822 70.1946 197.186 70.1946 196.418V195.878H69.6366C68.6646 195.878 67.8966 195.926 67.3326 196.022C66.7806 196.106 66.3906 196.262 66.1626 196.49C65.9466 196.706 65.8386 197.006 65.8386 197.39C65.8386 197.882 66.0066 198.284 66.3426 198.596C66.6906 198.908 67.1586 199.064 67.7466 199.064ZM78.0115 200.162C77.1355 200.162 76.3795 199.976 75.7435 199.604C75.1075 199.22 74.6155 198.686 74.2675 198.002C73.9315 197.306 73.7635 196.496 73.7635 195.572C73.7635 194.18 74.1415 193.088 74.8975 192.296C75.6535 191.492 76.6915 191.09 78.0115 191.09C78.5515 191.09 79.0855 191.186 79.6135 191.378C80.1415 191.57 80.5795 191.84 80.9275 192.188L80.4235 193.25C80.0755 192.914 79.6915 192.668 79.2715 192.512C78.8635 192.356 78.4735 192.278 78.1015 192.278C77.1895 192.278 76.4875 192.566 75.9955 193.142C75.5035 193.706 75.2575 194.522 75.2575 195.59C75.2575 196.634 75.5035 197.462 75.9955 198.074C76.4875 198.674 77.1895 198.974 78.1015 198.974C78.4735 198.974 78.8635 198.896 79.2715 198.74C79.6915 198.584 80.0755 198.332 80.4235 197.984L80.9275 199.046C80.5795 199.394 80.1355 199.67 79.5955 199.874C79.0675 200.066 78.5395 200.162 78.0115 200.162ZM85.3193 200.162C84.7193 200.162 84.1793 200.048 83.6993 199.82C83.2313 199.58 82.8593 199.256 82.5833 198.848C82.3073 198.44 82.1693 197.984 82.1693 197.48C82.1693 196.844 82.3313 196.34 82.6553 195.968C82.9913 195.596 83.5373 195.332 84.2933 195.176C85.0613 195.008 86.1053 194.924 87.4253 194.924H88.0013V194.366C88.0013 193.622 87.8453 193.088 87.5333 192.764C87.2333 192.428 86.7473 192.26 86.0753 192.26C85.5473 192.26 85.0373 192.338 84.5453 192.494C84.0533 192.638 83.5493 192.878 83.0333 193.214L82.5293 192.152C82.9853 191.828 83.5373 191.57 84.1853 191.378C84.8453 191.186 85.4753 191.09 86.0753 191.09C87.2033 191.09 88.0373 191.366 88.5773 191.918C89.1293 192.47 89.4053 193.328 89.4053 194.492V200H88.0373V198.488C87.8093 199.004 87.4553 199.412 86.9753 199.712C86.5073 200.012 85.9553 200.162 85.3193 200.162ZM85.5533 199.064C86.2733 199.064 86.8613 198.818 87.3173 198.326C87.7733 197.822 88.0013 197.186 88.0013 196.418V195.878H87.4433C86.4713 195.878 85.7033 195.926 85.1393 196.022C84.5873 196.106 84.1973 196.262 83.9693 196.49C83.7533 196.706 83.6453 197.006 83.6453 197.39C83.6453 197.882 83.8133 198.284 84.1493 198.596C84.4973 198.908 84.9653 199.064 85.5533 199.064ZM95.6202 200.162C94.5882 200.162 93.8142 199.892 93.2982 199.352C92.7822 198.8 92.5242 198.008 92.5242 196.976V192.386H90.8142V191.252H92.5242V188.57H93.9822V191.252H96.7542V192.386H93.9822V196.832C93.9822 197.516 94.1262 198.038 94.4142 198.398C94.7022 198.746 95.1702 198.92 95.8182 198.92C96.0102 198.92 96.2022 198.896 96.3942 198.848C96.5862 198.8 96.7602 198.752 96.9162 198.704L97.1682 199.82C97.0122 199.904 96.7842 199.982 96.4842 200.054C96.1842 200.126 95.8962 200.162 95.6202 200.162ZM98.2232 189.074V187.436H100.023V189.074H98.2232ZM98.4032 200V191.252H99.8612V200H98.4032ZM106.223 200.162C105.371 200.162 104.633 199.976 104.009 199.604C103.385 199.232 102.899 198.71 102.551 198.038C102.215 197.354 102.047 196.55 102.047 195.626C102.047 194.702 102.215 193.904 102.551 193.232C102.899 192.548 103.385 192.02 104.009 191.648C104.633 191.276 105.371 191.09 106.223 191.09C107.063 191.09 107.795 191.276 108.419 191.648C109.055 192.02 109.541 192.548 109.877 193.232C110.225 193.904 110.399 194.702 110.399 195.626C110.399 196.55 110.225 197.354 109.877 198.038C109.541 198.71 109.055 199.232 108.419 199.604C107.795 199.976 107.063 200.162 106.223 200.162ZM106.223 198.992C107.039 198.992 107.693 198.704 108.185 198.128C108.677 197.54 108.923 196.706 108.923 195.626C108.923 194.534 108.677 193.7 108.185 193.124C107.693 192.548 107.039 192.26 106.223 192.26C105.395 192.26 104.735 192.548 104.243 193.124C103.763 193.7 103.523 194.534 103.523 195.626C103.523 196.706 103.763 197.54 104.243 198.128C104.735 198.704 105.395 198.992 106.223 198.992ZM112.589 200V191.252H114.011V192.746C114.299 192.194 114.707 191.78 115.235 191.504C115.763 191.228 116.357 191.09 117.017 191.09C119.093 191.09 120.131 192.242 120.131 194.546V200H118.673V194.636C118.673 193.82 118.511 193.226 118.187 192.854C117.875 192.47 117.371 192.278 116.675 192.278C115.871 192.278 115.229 192.53 114.749 193.034C114.281 193.526 114.047 194.186 114.047 195.014V200H112.589Z" fill="#16181C" style="fill:#16181C;fill:color(display-p3 0.0863 0.0941 0.1098);fill-opacity:1;"/>
<path d="M358 191L364 197L370 191" stroke="#16181C" style="stroke:#16181C;stroke:color(display-p3 0.0863 0.0941 0.1098);stroke-opacity:1;" stroke-width="2"/>
<path d="M39.78 151.108C39.116 151.108 38.516 151.024 37.98 150.856C37.444 150.68 36.98 150.428 36.588 150.1L36.936 149.308C37.344 149.62 37.772 149.852 38.22 150.004C38.668 150.156 39.188 150.232 39.78 150.232C40.5 150.232 41.032 150.1 41.376 149.836C41.728 149.564 41.904 149.208 41.904 148.768C41.904 148.416 41.776 148.136 41.52 147.928C41.272 147.72 40.852 147.556 40.26 147.436L39.012 147.184C38.26 147.024 37.696 146.764 37.32 146.404C36.952 146.036 36.768 145.548 36.768 144.94C36.768 144.436 36.896 143.996 37.152 143.62C37.416 143.244 37.78 142.952 38.244 142.744C38.708 142.536 39.244 142.432 39.852 142.432C40.42 142.432 40.948 142.524 41.436 142.708C41.924 142.884 42.336 143.14 42.672 143.476L42.324 144.244C41.964 143.916 41.584 143.68 41.184 143.536C40.784 143.384 40.336 143.308 39.84 143.308C39.208 143.308 38.704 143.456 38.328 143.752C37.952 144.04 37.764 144.424 37.764 144.904C37.764 145.288 37.88 145.592 38.112 145.816C38.352 146.04 38.74 146.204 39.276 146.308L40.524 146.572C41.332 146.74 41.928 146.996 42.312 147.34C42.704 147.676 42.9 148.136 42.9 148.72C42.9 149.192 42.772 149.608 42.516 149.968C42.268 150.328 41.908 150.608 41.436 150.808C40.972 151.008 40.42 151.108 39.78 151.108ZM46.3588 151.108C44.9588 151.108 44.2588 150.336 44.2588 148.792V145.168H45.2308V148.78C45.2308 149.3 45.3348 149.684 45.5428 149.932C45.7588 150.18 46.0948 150.304 46.5508 150.304C47.0468 150.304 47.4508 150.14 47.7628 149.812C48.0748 149.476 48.2308 149.032 48.2308 148.48V145.168H49.2028V151H48.2548V150.016C48.0708 150.368 47.8108 150.64 47.4748 150.832C47.1468 151.016 46.7748 151.108 46.3588 151.108ZM53.9734 151.108C53.5094 151.108 53.1014 151.004 52.7494 150.796C52.4054 150.588 52.1454 150.304 51.9694 149.944V151H51.0214V142.54H51.9934V146.176C52.1614 145.832 52.4214 145.56 52.7734 145.36C53.1254 145.16 53.5254 145.06 53.9734 145.06C54.4934 145.06 54.9454 145.184 55.3294 145.432C55.7214 145.672 56.0214 146.02 56.2294 146.476C56.4454 146.924 56.5534 147.46 56.5534 148.084C56.5534 148.7 56.4454 149.236 56.2294 149.692C56.0214 150.14 55.7214 150.488 55.3294 150.736C54.9454 150.984 54.4934 151.108 53.9734 151.108ZM53.7694 150.328C54.3134 150.328 54.7494 150.136 55.0774 149.752C55.4054 149.36 55.5694 148.804 55.5694 148.084C55.5694 147.356 55.4054 146.8 55.0774 146.416C54.7494 146.032 54.3134 145.84 53.7694 145.84C53.2254 145.84 52.7894 146.032 52.4614 146.416C52.1334 146.8 51.9694 147.356 51.9694 148.084C51.9694 148.804 52.1334 149.36 52.4614 149.752C52.7894 150.136 53.2254 150.328 53.7694 150.328ZM57.9335 143.716V142.624H59.1335V143.716H57.9335ZM56.5055 153.316L56.4335 152.56L56.9495 152.512C57.6855 152.448 58.0535 152.004 58.0535 151.18V145.168H59.0255V151.084C59.0255 151.78 58.8615 152.308 58.5335 152.668C58.2055 153.028 57.7015 153.232 57.0215 153.28L56.5055 153.316ZM63.4814 151.108C62.5614 151.108 61.8334 150.84 61.2974 150.304C60.7614 149.76 60.4934 149.024 60.4934 148.096C60.4934 147.496 60.6134 146.968 60.8534 146.512C61.0934 146.048 61.4214 145.692 61.8374 145.444C62.2614 145.188 62.7494 145.06 63.3014 145.06C64.0934 145.06 64.7134 145.316 65.1614 145.828C65.6094 146.332 65.8334 147.028 65.8334 147.916V148.288H61.4414C61.4734 148.952 61.6654 149.46 62.0174 149.812C62.3694 150.156 62.8574 150.328 63.4814 150.328C63.8334 150.328 64.1694 150.276 64.4894 150.172C64.8094 150.06 65.1134 149.88 65.4014 149.632L65.7374 150.316C65.4734 150.564 65.1374 150.76 64.7294 150.904C64.3214 151.04 63.9054 151.108 63.4814 151.108ZM63.3254 145.78C62.7734 145.78 62.3374 145.952 62.0174 146.296C61.6974 146.64 61.5094 147.092 61.4534 147.652H64.9934C64.9694 147.06 64.8134 146.6 64.5254 146.272C64.2454 145.944 63.8454 145.78 63.3254 145.78ZM69.7121 151.108C69.1281 151.108 68.6241 150.984 68.2001 150.736C67.7761 150.48 67.4481 150.124 67.2161 149.668C66.9921 149.204 66.8801 148.664 66.8801 148.048C66.8801 147.12 67.1321 146.392 67.6361 145.864C68.1401 145.328 68.8321 145.06 69.7121 145.06C70.0721 145.06 70.4281 145.124 70.7801 145.252C71.1321 145.38 71.4241 145.56 71.6561 145.792L71.3201 146.5C71.0881 146.276 70.8321 146.112 70.5521 146.008C70.2801 145.904 70.0201 145.852 69.7721 145.852C69.1641 145.852 68.6961 146.044 68.3681 146.428C68.0401 146.804 67.8761 147.348 67.8761 148.06C67.8761 148.756 68.0401 149.308 68.3681 149.716C68.6961 150.116 69.1641 150.316 69.7721 150.316C70.0201 150.316 70.2801 150.264 70.5521 150.16C70.8321 150.056 71.0881 149.888 71.3201 149.656L71.6561 150.364C71.4241 150.596 71.1281 150.78 70.7681 150.916C70.4161 151.044 70.0641 151.108 69.7121 151.108ZM75.1348 151.108C74.4468 151.108 73.9308 150.928 73.5868 150.568C73.2428 150.2 73.0708 149.672 73.0708 148.984V145.924H71.9308V145.168H73.0708V143.38H74.0428V145.168H75.8908V145.924H74.0428V148.888C74.0428 149.344 74.1388 149.692 74.3308 149.932C74.5228 150.164 74.8348 150.28 75.2668 150.28C75.3948 150.28 75.5228 150.264 75.6508 150.232C75.7788 150.2 75.8948 150.168 75.9988 150.136L76.1668 150.88C76.0628 150.936 75.9108 150.988 75.7108 151.036C75.5108 151.084 75.3188 151.108 75.1348 151.108Z" fill="#16181C" style="fill:#16181C;fill:color(display-p3 0.0863 0.0941 0.1098);fill-opacity:1;"/>
<path d="M36 535C36 531.686 38.6863 529 42 529H382C385.314 529 388 531.686 388 535V583C388 586.314 385.314 589 382 589H42C38.6863 589 36 586.314 36 583V535Z" fill="#16181C" style="fill:#16181C;fill:color(display-p3 0.0863 0.0941 0.1098);fill-opacity:1;"/>
<path d="M171.537 565.162C170.541 565.162 169.629 565.036 168.801 564.784C167.973 564.52 167.271 564.154 166.695 563.686L167.289 562.21C167.889 562.666 168.531 563.008 169.215 563.236C169.899 563.464 170.673 563.578 171.537 563.578C172.557 563.578 173.307 563.398 173.787 563.038C174.279 562.666 174.525 562.186 174.525 561.598C174.525 561.118 174.351 560.74 174.003 560.464C173.655 560.176 173.073 559.948 172.257 559.78L170.331 559.384C169.191 559.144 168.339 558.748 167.775 558.196C167.223 557.644 166.947 556.9 166.947 555.964C166.947 555.208 167.145 554.542 167.541 553.966C167.949 553.39 168.513 552.946 169.233 552.634C169.953 552.31 170.781 552.148 171.717 552.148C172.581 552.148 173.379 552.28 174.111 552.544C174.855 552.796 175.485 553.168 176.001 553.66L175.389 555.082C174.369 554.182 173.139 553.732 171.699 553.732C170.811 553.732 170.103 553.93 169.575 554.326C169.059 554.722 168.801 555.25 168.801 555.91C168.801 556.414 168.963 556.816 169.287 557.116C169.611 557.416 170.151 557.644 170.907 557.8L172.815 558.196C174.015 558.448 174.909 558.838 175.497 559.366C176.085 559.882 176.379 560.584 176.379 561.472C176.379 562.216 176.181 562.864 175.785 563.416C175.389 563.968 174.831 564.4 174.111 564.712C173.391 565.012 172.533 565.162 171.537 565.162ZM182.428 565.162C180.988 565.162 179.854 564.76 179.026 563.956C178.198 563.14 177.784 562.03 177.784 560.626C177.784 559.726 177.964 558.934 178.324 558.25C178.696 557.554 179.206 557.014 179.854 556.63C180.502 556.246 181.246 556.054 182.086 556.054C183.298 556.054 184.252 556.444 184.948 557.224C185.644 557.992 185.992 559.054 185.992 560.41V561.022H179.548C179.68 562.846 180.646 563.758 182.446 563.758C182.95 563.758 183.442 563.68 183.922 563.524C184.414 563.368 184.876 563.11 185.308 562.75L185.848 564.01C185.452 564.37 184.942 564.652 184.318 564.856C183.694 565.06 183.064 565.162 182.428 565.162ZM182.158 557.332C181.402 557.332 180.802 557.566 180.358 558.034C179.914 558.502 179.644 559.126 179.548 559.906H184.462C184.426 559.09 184.21 558.46 183.814 558.016C183.418 557.56 182.866 557.332 182.158 557.332ZM187.974 565V556.216H189.738V557.674C190.038 557.146 190.446 556.744 190.962 556.468C191.49 556.192 192.078 556.054 192.726 556.054C194.802 556.054 195.84 557.23 195.84 559.582V565H194.022V559.69C194.022 558.934 193.872 558.382 193.572 558.034C193.284 557.686 192.828 557.512 192.204 557.512C191.472 557.512 190.884 557.746 190.44 558.214C190.008 558.67 189.792 559.276 189.792 560.032V565H187.974ZM201.693 565.162C200.925 565.162 200.247 564.982 199.659 564.622C199.083 564.25 198.633 563.722 198.309 563.038C197.985 562.354 197.823 561.544 197.823 560.608C197.823 559.672 197.985 558.868 198.309 558.196C198.633 557.512 199.083 556.984 199.659 556.612C200.235 556.24 200.913 556.054 201.693 556.054C202.353 556.054 202.941 556.198 203.457 556.486C203.973 556.774 204.357 557.164 204.609 557.656V552.31H206.427V565H204.645V563.47C204.393 563.998 204.003 564.412 203.475 564.712C202.959 565.012 202.365 565.162 201.693 565.162ZM202.161 563.758C202.905 563.758 203.505 563.488 203.961 562.948C204.417 562.408 204.645 561.628 204.645 560.608C204.645 559.588 204.417 558.814 203.961 558.286C203.505 557.746 202.905 557.476 202.161 557.476C201.405 557.476 200.799 557.746 200.343 558.286C199.887 558.814 199.659 559.588 199.659 560.608C199.659 561.628 199.887 562.408 200.343 562.948C200.799 563.488 201.405 563.758 202.161 563.758ZM213.907 565V552.31H222.115V553.822H215.707V557.8H221.737V559.312H215.707V563.488H222.115V565H213.907ZM224.344 565V556.216H226.108V557.638C226.372 557.134 226.738 556.744 227.206 556.468C227.674 556.192 228.22 556.054 228.844 556.054C230.188 556.054 231.058 556.642 231.454 557.818C231.73 557.266 232.126 556.834 232.642 556.522C233.158 556.21 233.746 556.054 234.406 556.054C236.374 556.054 237.358 557.23 237.358 559.582V565H235.54V559.672C235.54 558.928 235.408 558.382 235.144 558.034C234.892 557.686 234.472 557.512 233.884 557.512C233.224 557.512 232.702 557.746 232.318 558.214C231.934 558.67 231.742 559.294 231.742 560.086V565H229.924V559.672C229.924 558.928 229.798 558.382 229.546 558.034C229.294 557.686 228.874 557.512 228.286 557.512C227.626 557.512 227.104 557.746 226.72 558.214C226.348 558.67 226.162 559.294 226.162 560.086V565H224.344ZM242.708 565.162C242.096 565.162 241.55 565.042 241.07 564.802C240.59 564.562 240.206 564.238 239.918 563.83C239.642 563.422 239.504 562.96 239.504 562.444C239.504 561.796 239.666 561.286 239.99 560.914C240.326 560.542 240.872 560.272 241.628 560.104C242.396 559.936 243.428 559.852 244.724 559.852H245.336V559.384C245.336 558.7 245.192 558.208 244.904 557.908C244.616 557.608 244.142 557.458 243.482 557.458C242.978 557.458 242.474 557.536 241.97 557.692C241.466 557.836 240.95 558.07 240.422 558.394L239.864 557.116C240.32 556.792 240.89 556.534 241.574 556.342C242.258 556.15 242.912 556.054 243.536 556.054C244.736 556.054 245.624 556.342 246.2 556.918C246.776 557.482 247.064 558.37 247.064 559.582V565H245.354V563.542C245.138 564.046 244.802 564.442 244.346 564.73C243.89 565.018 243.344 565.162 242.708 565.162ZM243.068 563.866C243.716 563.866 244.256 563.638 244.688 563.182C245.12 562.726 245.336 562.15 245.336 561.454V560.968H244.742C243.866 560.968 243.176 561.01 242.672 561.094C242.18 561.178 241.826 561.322 241.61 561.526C241.406 561.718 241.304 561.988 241.304 562.336C241.304 562.792 241.46 563.164 241.772 563.452C242.084 563.728 242.516 563.866 243.068 563.866ZM249.406 554.182V552.292H251.53V554.182H249.406ZM249.568 565V556.216H251.386V565H249.568ZM256.807 565.162C255.847 565.162 255.127 564.892 254.647 564.352C254.179 563.812 253.945 563.02 253.945 561.976V552.31H255.763V561.868C255.763 563.056 256.249 563.65 257.221 563.65C257.365 563.65 257.497 563.644 257.617 563.632C257.749 563.62 257.881 563.596 258.013 563.56L257.977 565.018C257.569 565.114 257.179 565.162 256.807 565.162Z" fill="white" style="fill:white;fill-opacity:1;"/>
<path d="M12 6H412V121H12V6Z" fill="#16181C" style="fill:#16181C;fill:color(display-p3 0.0863 0.0941 0.1098);fill-opacity:1;"/>
<path d="M45.9219 52.6758C44.0208 53.3919 42.5495 54.5052 41.5078 56.0156C40.4792 57.513 39.9648 59.362 39.9648 61.5625C39.9648 62.3958 40.056 63.0599 40.2383 63.5547C40.2904 63.724 40.3555 63.8737 40.4336 64.0039C40.4857 64.0951 40.5117 64.1862 40.5117 64.2773C39.0664 64.2773 38.0117 63.9909 37.3477 63.418C36.6055 62.793 36.2344 61.7839 36.2344 60.3906C36.2344 59.5182 36.4232 58.6589 36.8008 57.8125C37.1784 56.9531 37.7122 56.1263 38.4023 55.332C39.0534 54.5768 39.8281 53.8737 40.7266 53.2227C41.638 52.5586 42.6211 51.9857 43.6758 51.5039C45.8893 50.5013 48.0898 50 50.2773 50C50.8763 50 51.4102 50.026 51.8789 50.0781L52.2305 74.6875L60.6484 50.1953H63.4414L52.3281 80H46.5664L45.9219 52.6758ZM67.2891 57.832C66.8594 57.832 66.4492 57.7539 66.0586 57.5977C65.668 57.4284 65.3294 57.2005 65.043 56.9141C64.7565 56.6406 64.5286 56.3086 64.3594 55.918C64.2031 55.5273 64.125 55.1172 64.125 54.6875C64.125 54.2578 64.2031 53.8477 64.3594 53.457C64.5286 53.0664 64.7565 52.7214 65.043 52.4219C65.3294 52.1224 65.668 51.8945 66.0586 51.7383C66.4492 51.569 66.8594 51.4844 67.2891 51.4844C67.7188 51.4844 68.1289 51.569 68.5195 51.7383C68.9102 51.8945 69.2552 52.1224 69.5547 52.4219C69.8542 52.7214 70.082 53.0664 70.2383 53.457C70.4076 53.8477 70.4922 54.2578 70.4922 54.6875C70.4922 55.1172 70.4076 55.5273 70.2383 55.918C70.082 56.3086 69.8542 56.6406 69.5547 56.9141C69.2552 57.2005 68.9102 57.4284 68.5195 57.5977C68.1289 57.7539 67.7188 57.832 67.2891 57.832ZM64.5742 80.2344C63.2982 80.2344 62.2891 79.8568 61.5469 79.1016C60.7135 78.2682 60.2969 77.0508 60.2969 75.4492C60.2969 74.694 60.401 73.8216 60.6094 72.832L63.3242 60H69.0859L66.2148 73.5938C66.1107 73.9323 66.0586 74.362 66.0586 74.8828C66.0586 75.4297 66.1823 75.8138 66.4297 76.0352C66.6901 76.2565 67.1068 76.3672 67.6797 76.3672C68.0703 76.3672 68.4479 76.2826 68.8125 76.1133C69.1901 75.931 69.5352 75.6836 69.8477 75.3711C70.4857 74.7331 70.9674 73.8867 71.293 72.832H72.9727C72.2565 74.8503 71.3581 76.4583 70.2773 77.6562C69.3659 78.6328 68.3372 79.3359 67.1914 79.7656C66.3581 80.0781 65.4857 80.2344 64.5742 80.2344ZM75.8633 80.2344C74.8997 80.2344 74.0469 80.0911 73.3047 79.8047C72.5625 79.5052 71.9375 79.0951 71.4297 78.5742C70.9609 78.0924 70.6094 77.5586 70.375 76.9727C70.1406 76.3737 70.0234 75.7552 70.0234 75.1172C70.0234 74.2448 70.2448 73.457 70.6875 72.7539C71.0781 72.1289 71.5664 71.6797 72.1523 71.4062C73.194 69.5573 74.099 67.6823 74.8672 65.7812C75.6354 63.8802 76.3711 61.8034 77.0742 59.5508L82.9922 58.7695C83.1484 62.1549 83.2917 64.7526 83.4219 66.5625C83.5521 68.4245 83.6628 69.7917 83.7539 70.6641C83.832 71.6797 83.8711 72.5651 83.8711 73.3203C83.8711 73.9974 83.819 74.5052 83.7148 74.8438C84.9128 74.1406 85.8698 73.4701 86.5859 72.832H88.2656C87.3151 73.9388 86.332 74.8893 85.3164 75.6836C84.3138 76.4779 83.2591 77.194 82.1523 77.832C81.3581 78.6654 80.362 79.2839 79.1641 79.6875C78.1224 80.0521 77.0221 80.2344 75.8633 80.2344ZM74.5938 77.0703C75.5964 77.0703 76.3971 76.7969 76.9961 76.25C77.7122 75.599 78.0703 74.6354 78.0703 73.3594C78.0703 72.8255 78.0378 72.1549 77.9727 71.3477L77.875 70.1562C77.7578 69.1276 77.6406 67.9362 77.5234 66.582L77.3086 63.8867C76.931 65.0977 76.4818 66.3021 75.9609 67.5C75.4401 68.6849 74.8086 70 74.0664 71.4453C74.6784 71.7839 74.9844 72.2461 74.9844 72.832C74.9844 73.3529 74.8281 73.8021 74.5156 74.1797C74.1771 74.5964 73.7474 74.8047 73.2266 74.8047C72.9661 74.8047 72.7448 74.7721 72.5625 74.707C72.3932 74.6289 72.2565 74.4857 72.1523 74.2773C72.1523 75.2409 72.3411 75.9505 72.7188 76.4062C73.0964 76.849 73.7214 77.0703 74.5938 77.0703ZM110.902 80.2344C109.249 80.2344 108.025 79.7656 107.23 78.8281C106.54 78.0208 106.195 76.9857 106.195 75.7227C106.195 75.1237 106.267 74.4271 106.41 73.6328C106.566 72.8385 106.794 71.8164 107.094 70.5664C107.393 69.2904 107.615 68.2747 107.758 67.5195C107.914 66.7513 107.992 66.0872 107.992 65.5273C107.992 64.1602 107.51 63.4766 106.547 63.4766C105.87 63.4766 105.245 63.8346 104.672 64.5508C104.19 65.1628 103.773 66.0352 103.422 67.168L100.707 80H94.9453L97.875 66.1914C97.9531 65.8789 97.9922 65.5469 97.9922 65.1953C97.9922 64.6615 97.9076 64.2513 97.7383 63.9648C97.5169 63.6133 97.1979 63.4375 96.7812 63.4375C96.026 63.4375 95.3685 63.8021 94.8086 64.5312C94.3138 65.1562 93.8906 66.0352 93.5391 67.168L90.8242 80H85.0625L89.3008 60H95.0625L94.6328 62.0703C95.4141 61.1979 96.2669 60.5794 97.1914 60.2148C97.9206 59.9414 98.6953 59.8047 99.5156 59.8047C100.635 59.8047 101.527 60.0651 102.191 60.5859C102.934 61.1719 103.409 62.0573 103.617 63.2422C104.477 61.9141 105.466 60.9766 106.586 60.4297C107.38 60.0391 108.246 59.8438 109.184 59.8438C110.525 59.8438 111.586 60.1953 112.367 60.8984C113.201 61.6667 113.617 62.819 113.617 64.3555C113.617 65.2279 113.454 66.4323 113.129 67.9688C112.999 68.6068 112.842 69.2513 112.66 69.9023C112.335 71.1523 112.068 72.3047 111.859 73.3594C111.755 73.9062 111.703 74.349 111.703 74.6875C111.703 75.2214 111.82 75.638 112.055 75.9375C112.302 76.224 112.719 76.3672 113.305 76.3672C114.099 76.3672 114.77 76.0417 115.316 75.3906C115.733 74.8958 116.182 74.043 116.664 72.832H118.344C117.354 75.7617 116.104 77.8125 114.594 78.9844C113.526 79.8177 112.296 80.2344 110.902 80.2344ZM121.469 80.2344C119.945 80.2344 118.715 79.7591 117.777 78.8086C116.684 77.6888 116.137 76.0221 116.137 73.8086C116.137 72.8711 116.234 71.8815 116.43 70.8398C116.612 69.7982 116.885 68.7695 117.25 67.7539C118.083 65.4622 119.223 63.6133 120.668 62.207C122.335 60.6055 124.255 59.8047 126.43 59.8047C127.51 59.8047 128.318 59.9935 128.852 60.3711C129.398 60.7357 129.672 61.224 129.672 61.8359V62.1289L130.102 60H135.863L132.992 73.5938C132.875 73.9844 132.816 74.4141 132.816 74.8828C132.816 76.0286 133.363 76.6016 134.457 76.6016C135.186 76.6016 135.85 76.2305 136.449 75.4883C136.957 74.8633 137.374 73.9779 137.699 72.832H139.379C138.663 74.8633 137.797 76.4714 136.781 77.6562C135.922 78.6328 134.952 79.3359 133.871 79.7656C133.077 80.0781 132.237 80.2344 131.352 80.2344C130.219 80.2344 129.314 79.9284 128.637 79.3164C127.973 78.6914 127.569 77.7734 127.426 76.5625C126.671 77.6302 125.876 78.4635 125.043 79.0625C123.975 79.8438 122.784 80.2344 121.469 80.2344ZM124.066 76.3672C124.366 76.3672 124.678 76.2891 125.004 76.1328C125.342 75.9766 125.668 75.7552 125.98 75.4688C126.684 74.7917 127.152 73.9128 127.387 72.832L129.301 63.8086C129.301 63.6784 129.268 63.5286 129.203 63.3594C129.151 63.1771 129.073 63.0078 128.969 62.8516C128.656 62.474 128.22 62.2852 127.66 62.2852C127.126 62.2852 126.605 62.4609 126.098 62.8125C125.603 63.1641 125.134 63.6523 124.691 64.2773C123.91 65.4102 123.266 66.888 122.758 68.7109C122.523 69.5182 122.348 70.319 122.23 71.1133C122.113 71.8945 122.055 72.6042 122.055 73.2422C122.055 74.5703 122.302 75.4688 122.797 75.9375C122.966 76.1198 123.155 76.237 123.363 76.2891C123.572 76.3411 123.806 76.3672 124.066 76.3672ZM212.27 80.1562C211.84 80.1562 211.43 80.0781 211.039 79.9219C210.648 79.7526 210.31 79.5247 210.023 79.2383C209.737 78.9518 209.509 78.6133 209.34 78.2227C209.184 77.832 209.105 77.4219 209.105 76.9922C209.105 76.5625 209.184 76.1523 209.34 75.7617C209.509 75.3711 209.737 75.0326 210.023 74.7461C210.31 74.4596 210.648 74.2318 211.039 74.0625C211.43 73.8932 211.84 73.8086 212.27 73.8086C212.699 73.8086 213.109 73.8932 213.5 74.0625C213.891 74.2318 214.236 74.4596 214.535 74.7461C214.835 75.0326 215.062 75.3711 215.219 75.7617C215.388 76.1523 215.473 76.5625 215.473 76.9922C215.473 77.4219 215.388 77.832 215.219 78.2227C215.062 78.6133 214.835 78.9518 214.535 79.2383C214.236 79.5247 213.891 79.7526 213.5 79.9219C213.109 80.0781 212.699 80.1562 212.27 80.1562Z" fill="white" style="fill:white;fill-opacity:1;"/>
<path d="M149.672 53.5156H149.203C146.833 53.5156 145.049 54.056 143.852 55.1367C142.406 56.4388 141.684 58.5938 141.684 61.6016C141.684 62.4349 141.775 63.099 141.957 63.5938C142.009 63.763 142.074 63.9128 142.152 64.043C142.204 64.1341 142.23 64.2253 142.23 64.3164C140.785 64.3164 139.73 64.0299 139.066 63.457C138.324 62.832 137.953 61.8294 137.953 60.4492C137.953 59.069 138.207 57.7604 138.715 56.5234C139.236 55.2734 140.023 54.1797 141.078 53.2422C142.211 52.2266 143.65 51.4388 145.395 50.8789C147.152 50.319 149.223 50.0391 151.605 50.0391C152.973 50.0391 154.281 50.1172 155.531 50.2734C155.922 50.3125 156.43 50.3841 157.055 50.4883C158.096 50.6836 159.099 50.8138 160.062 50.8789C160.531 50.931 161.124 50.957 161.84 50.957C162.725 50.957 163.572 50.8789 164.379 50.7227C165.186 50.5664 165.889 50.3646 166.488 50.1172C166.423 51.862 165.974 53.1445 165.141 53.9648C164.32 54.7852 163.103 55.1953 161.488 55.1953C160.616 55.1953 159.737 55.1237 158.852 54.9805C157.966 54.8372 156.775 54.6159 155.277 54.3164L149.75 80H144.008L149.672 53.5156ZM162.699 80.2344C160.733 80.2344 159.216 79.7396 158.148 78.75C157.016 77.6953 156.449 76.0742 156.449 73.8867C156.449 73.0664 156.534 72.1549 156.703 71.1523C156.859 70.1497 157.1 69.1471 157.426 68.1445C157.79 67.0247 158.253 65.9635 158.812 64.9609C159.385 63.9583 160.049 63.0729 160.805 62.3047C162.549 60.5339 164.698 59.6484 167.25 59.6484C168.878 59.6484 170.062 60.0391 170.805 60.8203C171.378 61.4323 171.664 62.3177 171.664 63.4766C171.664 64.6094 171.417 65.6771 170.922 66.6797C170.427 67.6693 169.743 68.5482 168.871 69.3164C167.999 70.0716 167.009 70.6771 165.902 71.1328C164.796 71.5755 163.65 71.8359 162.465 71.9141C162.4 72.5911 162.367 73.125 162.367 73.5156C162.367 74.8177 162.615 75.7161 163.109 76.2109C163.539 76.6536 164.255 76.875 165.258 76.875C166.703 76.875 168.025 76.4844 169.223 75.7031C169.73 75.3776 170.219 74.9935 170.688 74.5508C171.156 74.0951 171.703 73.5221 172.328 72.832H173.695C172.432 74.9674 170.98 76.6667 169.34 77.9297C167.322 79.4661 165.108 80.2344 162.699 80.2344ZM162.777 70C163.52 69.9479 164.242 69.7331 164.945 69.3555C165.648 68.9779 166.273 68.4831 166.82 67.8711C167.367 67.2461 167.797 66.5495 168.109 65.7812C168.422 65 168.578 64.2057 168.578 63.3984C168.578 62.8646 168.5 62.4609 168.344 62.1875C168.201 61.901 167.947 61.7578 167.582 61.7578C167.1 61.7578 166.612 61.9922 166.117 62.4609C165.635 62.9297 165.167 63.5742 164.711 64.3945C164.294 65.1628 163.917 66.0352 163.578 67.0117C163.24 67.9883 162.973 68.9844 162.777 70ZM178.051 80.2344C176.085 80.2344 174.568 79.7396 173.5 78.75C172.367 77.6953 171.801 76.0742 171.801 73.8867C171.801 73.0664 171.885 72.1549 172.055 71.1523C172.211 70.1367 172.458 69.1276 172.797 68.125C173.591 65.6901 174.717 63.75 176.176 62.3047C177.973 60.5339 180.102 59.6484 182.562 59.6484C184.164 59.6484 185.349 60.0326 186.117 60.8008C186.716 61.4128 187.016 62.2526 187.016 63.3203C187.016 64.2578 186.807 64.987 186.391 65.5078C186 65.9896 185.499 66.2305 184.887 66.2305C184.444 66.2305 183.975 66.0742 183.48 65.7617C183.806 64.9154 183.969 64.1276 183.969 63.3984C183.969 62.8906 183.871 62.4935 183.676 62.207C183.493 61.9076 183.22 61.7578 182.855 61.7578C182.074 61.7578 181.26 62.4479 180.414 63.8281C179.646 65.0521 179.008 66.6081 178.5 68.4961C177.979 70.3451 177.719 72.0182 177.719 73.5156C177.719 74.8177 177.966 75.7161 178.461 76.2109C178.891 76.6536 179.607 76.875 180.609 76.875C182.055 76.875 183.376 76.4844 184.574 75.7031C185.082 75.3776 185.57 74.9935 186.039 74.5508C186.508 74.0951 187.055 73.5221 187.68 72.832H189.047C187.784 74.9674 186.332 76.6667 184.691 77.9297C182.673 79.4661 180.46 80.2344 178.051 80.2344ZM202.113 80.2344C200.46 80.2344 199.236 79.7656 198.441 78.8281C197.751 78.0208 197.406 76.9857 197.406 75.7227C197.406 75.1237 197.478 74.4271 197.621 73.6328C197.777 72.8385 198.005 71.8164 198.305 70.5664C198.604 69.2904 198.826 68.2747 198.969 67.5195C199.125 66.7513 199.203 66.0872 199.203 65.5273C199.203 64.1602 198.721 63.4766 197.758 63.4766C197.081 63.4766 196.456 63.8346 195.883 64.5508C195.401 65.1628 194.984 66.0352 194.633 67.168L191.918 80H186.156L191.957 52.793L197.875 51.9922L195.727 62.0703C196.508 61.1979 197.348 60.5859 198.246 60.2344C198.91 59.974 199.626 59.8438 200.395 59.8438C201.749 59.8438 202.816 60.1953 203.598 60.8984C204.431 61.6667 204.848 62.819 204.848 64.3555C204.848 65.2799 204.678 66.4844 204.34 67.9688C204.249 68.3984 204.099 69.043 203.891 69.9023C203.513 71.3477 203.24 72.5 203.07 73.3594C202.966 73.9062 202.914 74.349 202.914 74.6875C202.914 75.2214 203.031 75.638 203.266 75.9375C203.513 76.224 203.93 76.3672 204.516 76.3672C205.31 76.3672 205.98 76.0417 206.527 75.3906C206.944 74.8958 207.393 74.043 207.875 72.832H209.555C208.565 75.7617 207.315 77.8125 205.805 78.9844C204.737 79.8177 203.507 80.2344 202.113 80.2344Z" fill="#BBF146" style="fill:#BBF146;fill:color(display-p3 0.7333 0.9451 0.2745);fill-opacity:1;"/>
<g clip-path="url(#clip0_1290_923)">
<path fill-rule="evenodd" clip-rule="evenodd" d="M234.029 56.3712C232.464 53.5397 228.396 48.6803 224.053 50.9498L227.402 54.3215L229.006 53.338L228.169 55.0239L229.495 56.499L231.239 55.5858L230.402 57.2717C227.867 56.499 222.226 56.0635 219.938 60.5029L224.681 60.7839L225.17 58.6766L225.867 60.7839H227.681L228.379 58.8873L229.006 60.7839C226.356 62.5868 221.654 67.0356 224.053 70.4073L227.402 67.0356L226.076 65.2092L227.681 66.3332L229.495 64.7175L228.658 63.0317L230.402 63.9449L233.611 60.7839L232.634 74.9731C232.541 76.5888 231.616 79.8621 228.658 80.0307H233.96V80.0308H239.401C236.443 79.8622 235.518 76.5889 235.425 74.9733L234.448 60.784L237.657 63.945L239.401 63.0318L238.564 64.7177L240.378 66.3333L241.982 65.2094L240.657 67.0357L244.005 70.4074C246.405 67.0357 241.703 62.5869 239.052 60.784L239.68 58.8874L240.378 60.784H242.191L242.889 58.6767L243.377 60.784L248.121 60.503C245.833 56.0636 240.192 56.4991 237.657 57.2718L236.82 55.586L238.564 56.4991L239.889 55.024L239.052 53.3382L240.657 54.3216L244.005 50.9499C239.662 48.6804 235.595 53.5397 234.029 56.3712Z" fill="#BBF146" style="fill:#BBF146;fill:color(display-p3 0.7333 0.9451 0.2745);fill-opacity:1;"/>
</g>
<path d="M44.092 102.814L42.916 100.924C42.5987 100.392 42.0807 100.126 41.362 100.126C40.4473 100.126 39.6493 99.9207 38.968 99.51C38.296 99.09 37.7733 98.502 37.4 97.746C37.036 96.99 36.854 96.094 36.854 95.058C36.854 94.022 37.036 93.126 37.4 92.37C37.764 91.614 38.282 91.0307 38.954 90.62C39.6353 90.2093 40.438 90.004 41.362 90.004C42.2953 90.004 43.098 90.2093 43.77 90.62C44.4513 91.0307 44.974 91.614 45.338 92.37C45.7113 93.1167 45.898 94.008 45.898 95.044C45.898 96.248 45.6507 97.2653 45.156 98.096C44.6613 98.9173 43.9753 99.496 43.098 99.832C43.4713 99.9533 43.812 100.275 44.12 100.798L45.058 102.31L44.092 102.814ZM41.362 99.104C42.4167 99.104 43.2333 98.7493 43.812 98.04C44.3907 97.3307 44.68 96.3367 44.68 95.058C44.68 93.7793 44.3907 92.79 43.812 92.09C43.2333 91.3807 42.4167 91.026 41.362 91.026C40.326 91.026 39.5187 91.3807 38.94 92.09C38.3613 92.79 38.072 93.7793 38.072 95.058C38.072 96.3273 38.3613 97.3213 38.94 98.04C39.5187 98.7493 40.326 99.104 41.362 99.104ZM50.2044 100.126C48.5711 100.126 47.7544 99.2253 47.7544 97.424V93.196H48.8884V97.41C48.8884 98.0167 49.0098 98.4647 49.2524 98.754C49.5044 99.0433 49.8964 99.188 50.4284 99.188C51.0071 99.188 51.4784 98.9967 51.8424 98.614C52.2064 98.222 52.3884 97.704 52.3884 97.06V93.196H53.5224V100H52.4164V98.852C52.2018 99.2627 51.8984 99.58 51.5064 99.804C51.1238 100.019 50.6898 100.126 50.2044 100.126ZM55.5041 91.502V90.228H56.9041V91.502H55.5041ZM55.6441 100V93.196H56.7781V100H55.6441ZM61.782 100.126C61.1007 100.126 60.5127 99.9813 60.018 99.692C59.5233 99.3933 59.1407 98.978 58.87 98.446C58.6087 97.9047 58.478 97.2747 58.478 96.556C58.478 95.4733 58.772 94.624 59.36 94.008C59.948 93.3827 60.7553 93.07 61.782 93.07C62.202 93.07 62.6173 93.1447 63.028 93.294C63.4387 93.4433 63.7793 93.6533 64.05 93.924L63.658 94.75C63.3873 94.4887 63.0887 94.2973 62.762 94.176C62.4447 94.0547 62.1413 93.994 61.852 93.994C61.1427 93.994 60.5967 94.218 60.214 94.666C59.8313 95.1047 59.64 95.7393 59.64 96.57C59.64 97.382 59.8313 98.026 60.214 98.502C60.5967 98.9687 61.1427 99.202 61.852 99.202C62.1413 99.202 62.4447 99.1413 62.762 99.02C63.0887 98.8987 63.3873 98.7027 63.658 98.432L64.05 99.258C63.7793 99.5287 63.434 99.7433 63.014 99.902C62.6033 100.051 62.1927 100.126 61.782 100.126ZM65.3785 100V90.13H66.5125V96.22H66.5405L69.6905 93.196H71.1325L67.7165 96.472L71.4265 100H69.9845L66.5405 96.808H66.5125V100H65.3785ZM78.1162 100.126C77.6495 100.126 77.2295 100.037 76.8562 99.86C76.4922 99.6733 76.2028 99.4213 75.9882 99.104C75.7735 98.7867 75.6662 98.432 75.6662 98.04C75.6662 97.5453 75.7922 97.1533 76.0442 96.864C76.3055 96.5747 76.7302 96.3693 77.3182 96.248C77.9155 96.1173 78.7275 96.052 79.7542 96.052H80.2022V95.618C80.2022 95.0393 80.0808 94.624 79.8382 94.372C79.6048 94.1107 79.2268 93.98 78.7042 93.98C78.2935 93.98 77.8968 94.0407 77.5142 94.162C77.1315 94.274 76.7395 94.4607 76.3382 94.722L75.9462 93.896C76.3008 93.644 76.7302 93.4433 77.2342 93.294C77.7475 93.1447 78.2375 93.07 78.7042 93.07C79.5815 93.07 80.2302 93.2847 80.6502 93.714C81.0795 94.1433 81.2942 94.8107 81.2942 95.716V100H80.2302V98.824C80.0528 99.2253 79.7775 99.5427 79.4042 99.776C79.0402 100.009 78.6108 100.126 78.1162 100.126ZM78.2982 99.272C78.8582 99.272 79.3155 99.0807 79.6702 98.698C80.0248 98.306 80.2022 97.8113 80.2022 97.214V96.794H79.7682C79.0122 96.794 78.4148 96.8313 77.9762 96.906C77.5468 96.9713 77.2435 97.0927 77.0662 97.27C76.8982 97.438 76.8142 97.6713 76.8142 97.97C76.8142 98.3527 76.9448 98.6653 77.2062 98.908C77.4768 99.1507 77.8408 99.272 78.2982 99.272ZM83.398 100V93.196H84.504V94.358C84.728 93.9287 85.0453 93.6067 85.456 93.392C85.8667 93.1773 86.3287 93.07 86.842 93.07C88.4567 93.07 89.264 93.966 89.264 95.758V100H88.13V95.828C88.13 95.1933 88.004 94.7313 87.752 94.442C87.5093 94.1433 87.1173 93.994 86.576 93.994C85.9507 93.994 85.4513 94.19 85.078 94.582C84.714 94.9647 84.532 95.478 84.532 96.122V100H83.398ZM93.945 100.126C93.3383 100.126 92.8063 99.9813 92.349 99.692C91.901 99.4027 91.551 98.9967 91.299 98.474C91.0563 97.942 90.935 97.3167 90.935 96.598C90.935 95.87 91.0563 95.2447 91.299 94.722C91.551 94.19 91.901 93.784 92.349 93.504C92.8063 93.2147 93.3383 93.07 93.945 93.07C94.477 93.07 94.9437 93.1867 95.345 93.42C95.7557 93.6533 96.059 93.9753 96.255 94.386V90.13H97.389V100H96.283V98.754C96.087 99.1833 95.7837 99.5193 95.373 99.762C94.9623 100.005 94.4863 100.126 93.945 100.126ZM94.183 99.216C94.8177 99.216 95.3263 98.992 95.709 98.544C96.0917 98.0867 96.283 97.438 96.283 96.598C96.283 95.7487 96.0917 95.1 95.709 94.652C95.3263 94.204 94.8177 93.98 94.183 93.98C93.539 93.98 93.0257 94.204 92.643 94.652C92.2697 95.1 92.083 95.7487 92.083 96.598C92.083 97.438 92.2697 98.0867 92.643 98.544C93.0257 98.992 93.539 99.216 94.183 99.216ZM106.179 100.126C105.105 100.126 104.256 99.8133 103.631 99.188C103.005 98.5533 102.693 97.6947 102.693 96.612C102.693 95.912 102.833 95.296 103.113 94.764C103.393 94.2227 103.775 93.8073 104.261 93.518C104.755 93.2193 105.325 93.07 105.969 93.07C106.893 93.07 107.616 93.3687 108.139 93.966C108.661 94.554 108.923 95.366 108.923 96.402V96.836H103.799C103.836 97.6107 104.06 98.2033 104.471 98.614C104.881 99.0153 105.451 99.216 106.179 99.216C106.589 99.216 106.981 99.1553 107.355 99.034C107.728 98.9033 108.083 98.6933 108.419 98.404L108.811 99.202C108.503 99.4913 108.111 99.72 107.635 99.888C107.159 100.047 106.673 100.126 106.179 100.126ZM105.997 93.91C105.353 93.91 104.844 94.1107 104.471 94.512C104.097 94.9133 103.878 95.4407 103.813 96.094H107.943C107.915 95.4033 107.733 94.8667 107.397 94.484C107.07 94.1013 106.603 93.91 105.997 93.91ZM112.706 100.126C112.239 100.126 111.819 100.037 111.446 99.86C111.082 99.6733 110.793 99.4213 110.578 99.104C110.363 98.7867 110.256 98.432 110.256 98.04C110.256 97.5453 110.382 97.1533 110.634 96.864C110.895 96.5747 111.32 96.3693 111.908 96.248C112.505 96.1173 113.317 96.052 114.344 96.052H114.792V95.618C114.792 95.0393 114.671 94.624 114.428 94.372C114.195 94.1107 113.817 93.98 113.294 93.98C112.883 93.98 112.487 94.0407 112.104 94.162C111.721 94.274 111.329 94.4607 110.928 94.722L110.536 93.896C110.891 93.644 111.32 93.4433 111.824 93.294C112.337 93.1447 112.827 93.07 113.294 93.07C114.171 93.07 114.82 93.2847 115.24 93.714C115.669 94.1433 115.884 94.8107 115.884 95.716V100H114.82V98.824C114.643 99.2253 114.367 99.5427 113.994 99.776C113.63 100.009 113.201 100.126 112.706 100.126ZM112.888 99.272C113.448 99.272 113.905 99.0807 114.26 98.698C114.615 98.306 114.792 97.8113 114.792 97.214V96.794H114.358C113.602 96.794 113.005 96.8313 112.566 96.906C112.137 96.9713 111.833 97.0927 111.656 97.27C111.488 97.438 111.404 97.6713 111.404 97.97C111.404 98.3527 111.535 98.6653 111.796 98.908C112.067 99.1507 112.431 99.272 112.888 99.272ZM120.284 100.126C119.752 100.126 119.248 100.051 118.772 99.902C118.296 99.7527 117.904 99.5427 117.596 99.272L117.96 98.474C118.296 98.7447 118.664 98.9453 119.066 99.076C119.476 99.1973 119.892 99.258 120.312 99.258C120.844 99.258 121.245 99.16 121.516 98.964C121.786 98.768 121.922 98.502 121.922 98.166C121.922 97.9047 121.833 97.6993 121.656 97.55C121.478 97.3913 121.198 97.27 120.816 97.186L119.542 96.906C118.384 96.654 117.806 96.0567 117.806 95.114C117.806 94.498 118.048 94.0033 118.534 93.63C119.028 93.2567 119.672 93.07 120.466 93.07C120.932 93.07 121.376 93.1447 121.796 93.294C122.225 93.434 122.58 93.644 122.86 93.924L122.482 94.722C122.211 94.47 121.894 94.2787 121.53 94.148C121.175 94.008 120.82 93.938 120.466 93.938C119.943 93.938 119.546 94.0407 119.276 94.246C119.005 94.4513 118.87 94.722 118.87 95.058C118.87 95.5807 119.215 95.9167 119.906 96.066L121.18 96.332C121.777 96.4627 122.23 96.6727 122.538 96.962C122.846 97.242 123 97.6247 123 98.11C123 98.7353 122.752 99.23 122.258 99.594C121.763 99.9487 121.105 100.126 120.284 100.126ZM125.375 102.52L126.537 99.888L123.667 93.196H124.899L127.153 98.712L129.421 93.196H130.611L126.565 102.52H125.375ZM137.52 100.126C137.054 100.126 136.634 100.037 136.26 99.86C135.896 99.6733 135.607 99.4213 135.392 99.104C135.178 98.7867 135.07 98.432 135.07 98.04C135.07 97.5453 135.196 97.1533 135.448 96.864C135.71 96.5747 136.134 96.3693 136.722 96.248C137.32 96.1173 138.132 96.052 139.158 96.052H139.606V95.618C139.606 95.0393 139.485 94.624 139.242 94.372C139.009 94.1107 138.631 93.98 138.108 93.98C137.698 93.98 137.301 94.0407 136.918 94.162C136.536 94.274 136.144 94.4607 135.742 94.722L135.35 93.896C135.705 93.644 136.134 93.4433 136.638 93.294C137.152 93.1447 137.642 93.07 138.108 93.07C138.986 93.07 139.634 93.2847 140.054 93.714C140.484 94.1433 140.698 94.8107 140.698 95.716V100H139.634V98.824C139.457 99.2253 139.182 99.5427 138.808 99.776C138.444 100.009 138.015 100.126 137.52 100.126ZM137.702 99.272C138.262 99.272 138.72 99.0807 139.074 98.698C139.429 98.306 139.606 97.8113 139.606 97.214V96.794H139.172C138.416 96.794 137.819 96.8313 137.38 96.906C136.951 96.9713 136.648 97.0927 136.47 97.27C136.302 97.438 136.218 97.6713 136.218 97.97C136.218 98.3527 136.349 98.6653 136.61 98.908C136.881 99.1507 137.245 99.272 137.702 99.272ZM146.246 100.126C145.705 100.126 145.229 100.005 144.818 99.762C144.417 99.5193 144.114 99.188 143.908 98.768V100H142.802V90.13H143.936V94.372C144.132 93.9707 144.436 93.6533 144.846 93.42C145.257 93.1867 145.724 93.07 146.246 93.07C146.853 93.07 147.38 93.2147 147.828 93.504C148.286 93.784 148.636 94.19 148.878 94.722C149.13 95.2447 149.256 95.87 149.256 96.598C149.256 97.3167 149.13 97.942 148.878 98.474C148.636 98.9967 148.286 99.4027 147.828 99.692C147.38 99.9813 146.853 100.126 146.246 100.126ZM146.008 99.216C146.643 99.216 147.152 98.992 147.534 98.544C147.917 98.0867 148.108 97.438 148.108 96.598C148.108 95.7487 147.917 95.1 147.534 94.652C147.152 94.204 146.643 93.98 146.008 93.98C145.374 93.98 144.865 94.204 144.482 94.652C144.1 95.1 143.908 95.7487 143.908 96.598C143.908 97.438 144.1 98.0867 144.482 98.544C144.865 98.992 145.374 99.216 146.008 99.216ZM153.26 100.126C152.728 100.126 152.224 100.051 151.748 99.902C151.272 99.7527 150.88 99.5427 150.572 99.272L150.936 98.474C151.272 98.7447 151.641 98.9453 152.042 99.076C152.453 99.1973 152.868 99.258 153.288 99.258C153.82 99.258 154.222 99.16 154.492 98.964C154.763 98.768 154.898 98.502 154.898 98.166C154.898 97.9047 154.81 97.6993 154.632 97.55C154.455 97.3913 154.175 97.27 153.792 97.186L152.518 96.906C151.361 96.654 150.782 96.0567 150.782 95.114C150.782 94.498 151.025 94.0033 151.51 93.63C152.005 93.2567 152.649 93.07 153.442 93.07C153.909 93.07 154.352 93.1447 154.772 93.294C155.202 93.434 155.556 93.644 155.836 93.924L155.458 94.722C155.188 94.47 154.87 94.2787 154.506 94.148C154.152 94.008 153.797 93.938 153.442 93.938C152.92 93.938 152.523 94.0407 152.252 94.246C151.982 94.4513 151.846 94.722 151.846 95.058C151.846 95.5807 152.192 95.9167 152.882 96.066L154.156 96.332C154.754 96.4627 155.206 96.6727 155.514 96.962C155.822 97.242 155.976 97.6247 155.976 98.11C155.976 98.7353 155.729 99.23 155.234 99.594C154.74 99.9487 154.082 100.126 153.26 100.126ZM160.771 100.126C159.697 100.126 158.848 99.8133 158.223 99.188C157.597 98.5533 157.285 97.6947 157.285 96.612C157.285 95.912 157.425 95.296 157.705 94.764C157.985 94.2227 158.367 93.8073 158.853 93.518C159.347 93.2193 159.917 93.07 160.561 93.07C161.485 93.07 162.208 93.3687 162.731 93.966C163.253 94.554 163.515 95.366 163.515 96.402V96.836H158.391C158.428 97.6107 158.652 98.2033 159.063 98.614C159.473 99.0153 160.043 99.216 160.771 99.216C161.181 99.216 161.573 99.1553 161.947 99.034C162.32 98.9033 162.675 98.6933 163.011 98.404L163.403 99.202C163.095 99.4913 162.703 99.72 162.227 99.888C161.751 100.047 161.265 100.126 160.771 100.126ZM160.589 93.91C159.945 93.91 159.436 94.1107 159.063 94.512C158.689 94.9133 158.47 95.4407 158.405 96.094H162.535C162.507 95.4033 162.325 94.8667 161.989 94.484C161.662 94.1013 161.195 93.91 160.589 93.91ZM165.156 100V93.196H166.262V94.358C166.486 93.9287 166.803 93.6067 167.214 93.392C167.624 93.1773 168.086 93.07 168.6 93.07C170.214 93.07 171.022 93.966 171.022 95.758V100H169.888V95.828C169.888 95.1933 169.762 94.7313 169.51 94.442C169.267 94.1433 168.875 93.994 168.334 93.994C167.708 93.994 167.209 94.19 166.836 94.582C166.472 94.9647 166.29 95.478 166.29 96.122V100H165.156ZM175.997 100.126C175.315 100.126 174.727 99.9813 174.233 99.692C173.738 99.3933 173.355 98.978 173.085 98.446C172.823 97.9047 172.693 97.2747 172.693 96.556C172.693 95.4733 172.987 94.624 173.575 94.008C174.163 93.3827 174.97 93.07 175.997 93.07C176.417 93.07 176.832 93.1447 177.243 93.294C177.653 93.4433 177.994 93.6533 178.265 93.924L177.873 94.75C177.602 94.4887 177.303 94.2973 176.977 94.176C176.659 94.0547 176.356 93.994 176.067 93.994C175.357 93.994 174.811 94.218 174.429 94.666C174.046 95.1047 173.855 95.7393 173.855 96.57C173.855 97.382 174.046 98.026 174.429 98.502C174.811 98.9687 175.357 99.202 176.067 99.202C176.356 99.202 176.659 99.1413 176.977 99.02C177.303 98.8987 177.602 98.7027 177.873 98.432L178.265 99.258C177.994 99.5287 177.649 99.7433 177.229 99.902C176.818 100.051 176.407 100.126 175.997 100.126ZM182.523 100.126C181.449 100.126 180.6 99.8133 179.975 99.188C179.349 98.5533 179.037 97.6947 179.037 96.612C179.037 95.912 179.177 95.296 179.457 94.764C179.737 94.2227 180.119 93.8073 180.605 93.518C181.099 93.2193 181.669 93.07 182.313 93.07C183.237 93.07 183.96 93.3687 184.483 93.966C185.005 94.554 185.267 95.366 185.267 96.402V96.836H180.143C180.18 97.6107 180.404 98.2033 180.815 98.614C181.225 99.0153 181.795 99.216 182.523 99.216C182.933 99.216 183.325 99.1553 183.699 99.034C184.072 98.9033 184.427 98.6933 184.763 98.404L185.155 99.202C184.847 99.4913 184.455 99.72 183.979 99.888C183.503 100.047 183.017 100.126 182.523 100.126ZM182.341 93.91C181.697 93.91 181.188 94.1107 180.815 94.512C180.441 94.9133 180.222 95.4407 180.157 96.094H184.287C184.259 95.4033 184.077 94.8667 183.741 94.484C183.414 94.1013 182.947 93.91 182.341 93.91ZM190.503 100V93.196H191.609V94.414C191.973 93.5927 192.72 93.14 193.849 93.056L194.255 93.014L194.339 93.994L193.625 94.078C192.981 94.134 192.491 94.3393 192.155 94.694C191.819 95.0393 191.651 95.5153 191.651 96.122V100H190.503ZM198.505 100.126C197.432 100.126 196.582 99.8133 195.957 99.188C195.332 98.5533 195.019 97.6947 195.019 96.612C195.019 95.912 195.159 95.296 195.439 94.764C195.719 94.2227 196.102 93.8073 196.587 93.518C197.082 93.2193 197.651 93.07 198.295 93.07C199.219 93.07 199.942 93.3687 200.465 93.966C200.988 94.554 201.249 95.366 201.249 96.402V96.836H196.125C196.162 97.6107 196.386 98.2033 196.797 98.614C197.208 99.0153 197.777 99.216 198.505 99.216C198.916 99.216 199.308 99.1553 199.681 99.034C200.054 98.9033 200.409 98.6933 200.745 98.404L201.137 99.202C200.829 99.4913 200.437 99.72 199.961 99.888C199.485 100.047 199 100.126 198.505 100.126ZM198.323 93.91C197.679 93.91 197.17 94.1107 196.797 94.512C196.424 94.9133 196.204 95.4407 196.139 96.094H200.269C200.241 95.4033 200.059 94.8667 199.723 94.484C199.396 94.1013 198.93 93.91 198.323 93.91ZM205.9 102.646C205.312 102.646 204.757 102.567 204.234 102.408C203.721 102.259 203.264 102.03 202.862 101.722L203.24 100.896C203.66 101.195 204.076 101.409 204.486 101.54C204.906 101.671 205.359 101.736 205.844 101.736C207.188 101.736 207.86 101.045 207.86 99.664V98.46C207.664 98.8893 207.356 99.23 206.936 99.482C206.526 99.7247 206.054 99.846 205.522 99.846C204.897 99.846 204.356 99.7013 203.898 99.412C203.441 99.1227 203.086 98.726 202.834 98.222C202.592 97.7087 202.47 97.116 202.47 96.444C202.47 95.772 202.592 95.184 202.834 94.68C203.086 94.1667 203.441 93.77 203.898 93.49C204.356 93.21 204.897 93.07 205.522 93.07C206.054 93.07 206.526 93.1913 206.936 93.434C207.356 93.6767 207.664 94.008 207.86 94.428V93.196H208.966V99.51C208.966 100.555 208.705 101.339 208.182 101.862C207.669 102.385 206.908 102.646 205.9 102.646ZM205.732 98.922C206.386 98.922 206.904 98.698 207.286 98.25C207.669 97.802 207.86 97.2 207.86 96.444C207.86 95.688 207.669 95.0907 207.286 94.652C206.904 94.204 206.386 93.98 205.732 93.98C205.088 93.98 204.575 94.204 204.192 94.652C203.81 95.0907 203.618 95.688 203.618 96.444C203.618 97.2 203.81 97.802 204.192 98.25C204.575 98.698 205.088 98.922 205.732 98.922ZM210.953 91.502V90.228H212.353V91.502H210.953ZM211.093 100V93.196H212.227V100H211.093ZM216.643 100.126C216.111 100.126 215.607 100.051 215.131 99.902C214.655 99.7527 214.263 99.5427 213.955 99.272L214.319 98.474C214.655 98.7447 215.024 98.9453 215.425 99.076C215.836 99.1973 216.251 99.258 216.671 99.258C217.203 99.258 217.605 99.16 217.875 98.964C218.146 98.768 218.281 98.502 218.281 98.166C218.281 97.9047 218.193 97.6993 218.015 97.55C217.838 97.3913 217.558 97.27 217.175 97.186L215.901 96.906C214.744 96.654 214.165 96.0567 214.165 95.114C214.165 94.498 214.408 94.0033 214.893 93.63C215.388 93.2567 216.032 93.07 216.825 93.07C217.292 93.07 217.735 93.1447 218.155 93.294C218.585 93.434 218.939 93.644 219.219 93.924L218.841 94.722C218.571 94.47 218.253 94.2787 217.889 94.148C217.535 94.008 217.18 93.938 216.825 93.938C216.303 93.938 215.906 94.0407 215.635 94.246C215.365 94.4513 215.229 94.722 215.229 95.058C215.229 95.5807 215.575 95.9167 216.265 96.066L217.539 96.332C218.137 96.4627 218.589 96.6727 218.897 96.962C219.205 97.242 219.359 97.6247 219.359 98.11C219.359 98.7353 219.112 99.23 218.617 99.594C218.123 99.9487 217.465 100.126 216.643 100.126ZM223.749 100.126C222.946 100.126 222.344 99.916 221.943 99.496C221.542 99.0667 221.341 98.4507 221.341 97.648V94.078H220.011V93.196H221.341V91.11H222.475V93.196H224.631V94.078H222.475V97.536C222.475 98.068 222.587 98.474 222.811 98.754C223.035 99.0247 223.399 99.16 223.903 99.16C224.052 99.16 224.202 99.1413 224.351 99.104C224.5 99.0667 224.636 99.0293 224.757 98.992L224.953 99.86C224.832 99.9253 224.654 99.986 224.421 100.042C224.188 100.098 223.964 100.126 223.749 100.126ZM225.914 100V93.196H227.02V94.414C227.384 93.5927 228.13 93.14 229.26 93.056L229.666 93.014L229.75 93.994L229.036 94.078C228.392 94.134 227.902 94.3393 227.566 94.694C227.23 95.0393 227.062 95.5153 227.062 96.122V100H225.914ZM233.005 100.126C232.538 100.126 232.118 100.037 231.745 99.86C231.381 99.6733 231.091 99.4213 230.877 99.104C230.662 98.7867 230.555 98.432 230.555 98.04C230.555 97.5453 230.681 97.1533 230.933 96.864C231.194 96.5747 231.619 96.3693 232.207 96.248C232.804 96.1173 233.616 96.052 234.643 96.052H235.091V95.618C235.091 95.0393 234.969 94.624 234.727 94.372C234.493 94.1107 234.115 93.98 233.593 93.98C233.182 93.98 232.785 94.0407 232.403 94.162C232.02 94.274 231.628 94.4607 231.227 94.722L230.835 93.896C231.189 93.644 231.619 93.4433 232.123 93.294C232.636 93.1447 233.126 93.07 233.593 93.07C234.47 93.07 235.119 93.2847 235.539 93.714C235.968 94.1433 236.183 94.8107 236.183 95.716V100H235.119V98.824C234.941 99.2253 234.666 99.5427 234.293 99.776C233.929 100.009 233.499 100.126 233.005 100.126ZM233.187 99.272C233.747 99.272 234.204 99.0807 234.559 98.698C234.913 98.306 235.091 97.8113 235.091 97.214V96.794H234.657C233.901 96.794 233.303 96.8313 232.865 96.906C232.435 96.9713 232.132 97.0927 231.955 97.27C231.787 97.438 231.703 97.6713 231.703 97.97C231.703 98.3527 231.833 98.6653 232.095 98.908C232.365 99.1507 232.729 99.272 233.187 99.272ZM241.017 100.126C240.214 100.126 239.612 99.916 239.211 99.496C238.809 99.0667 238.609 98.4507 238.609 97.648V94.078H237.279V93.196H238.609V91.11H239.743V93.196H241.899V94.078H239.743V97.536C239.743 98.068 239.855 98.474 240.079 98.754C240.303 99.0247 240.667 99.16 241.171 99.16C241.32 99.16 241.469 99.1413 241.619 99.104C241.768 99.0667 241.903 99.0293 242.025 98.992L242.221 99.86C242.099 99.9253 241.922 99.986 241.689 100.042C241.455 100.098 241.231 100.126 241.017 100.126ZM243.041 91.502V90.228H244.441V91.502H243.041ZM243.181 100V93.196H244.315V100H243.181ZM249.263 100.126C248.6 100.126 248.026 99.9813 247.541 99.692C247.056 99.4027 246.678 98.9967 246.407 98.474C246.146 97.942 246.015 97.3167 246.015 96.598C246.015 95.8793 246.146 95.2587 246.407 94.736C246.678 94.204 247.056 93.7933 247.541 93.504C248.026 93.2147 248.6 93.07 249.263 93.07C249.916 93.07 250.486 93.2147 250.971 93.504C251.466 93.7933 251.844 94.204 252.105 94.736C252.376 95.2587 252.511 95.8793 252.511 96.598C252.511 97.3167 252.376 97.942 252.105 98.474C251.844 98.9967 251.466 99.4027 250.971 99.692C250.486 99.9813 249.916 100.126 249.263 100.126ZM249.263 99.216C249.898 99.216 250.406 98.992 250.789 98.544C251.172 98.0867 251.363 97.438 251.363 96.598C251.363 95.7487 251.172 95.1 250.789 94.652C250.406 94.204 249.898 93.98 249.263 93.98C248.619 93.98 248.106 94.204 247.723 94.652C247.35 95.1 247.163 95.7487 247.163 96.598C247.163 97.438 247.35 98.0867 247.723 98.544C248.106 98.992 248.619 99.216 249.263 99.216ZM254.214 100V93.196H255.32V94.358C255.544 93.9287 255.862 93.6067 256.272 93.392C256.683 93.1773 257.145 93.07 257.658 93.07C259.273 93.07 260.08 93.966 260.08 95.758V100H258.946V95.828C258.946 95.1933 258.82 94.7313 258.568 94.442C258.326 94.1433 257.934 93.994 257.392 93.994C256.767 93.994 256.268 94.19 255.894 94.582C255.53 94.9647 255.348 95.478 255.348 96.122V100H254.214ZM262.353 97.424L262.003 90.13H263.403L263.053 97.424H262.353ZM261.989 100V98.572H263.417V100H261.989Z" fill="white" style="fill:white;fill-opacity:1;"/>
</g>
<defs>
<filter id="filter0_d_1290_923" x="0" y="0" width="436" height="636" filterUnits="userSpaceOnUse" color-interpolation-filters="sRGB">
<feFlood flood-opacity="0" result="BackgroundImageFix"/>
<feColorMatrix in="SourceAlpha" type="matrix" values="0 0 0 0 0 0 0 0 0 0 0 0 0 0 0 0 0 0 127 0" result="hardAlpha"/>
<feOffset dx="6" dy="12"/>
<feGaussianBlur stdDeviation="9"/>
<feComposite in2="hardAlpha" operator="out"/>
<feColorMatrix type="matrix" values="0 0 0 0 0.617643 0 0 0 0 0.617643 0 0 0 0 0.617643 0 0 0 0.39 0"/>
<feBlend mode="normal" in2="BackgroundImageFix" result="effect1_dropShadow_1290_923"/>
<feBlend mode="normal" in="SourceGraphic" in2="effect1_dropShadow_1290_923" result="shape"/>
</filter>
<clipPath id="clip0_1290_923">
<rect width="30" height="30" fill="white" style="fill:white;fill-opacity:1;" transform="translate(219 50)"/>
</clipPath>
</defs>
</svg>
